<mxfile host="65bd71144e" pages="3">
    <diagram id="VI9pJ-KbXVaa2eNekg1T" name="Page-1">
        <mxGraphModel dx="883" dy="425" grid="1" gridSize="10" guides="1" tooltips="1" connect="1" arrows="1" fold="1" page="1" pageScale="1" pageWidth="850" pageHeight="1100" math="0" shadow="0">
            <root>
                <mxCell id="0"/>
                <mxCell id="1" parent="0"/>
                <mxCell id="JKHgZj_2bdWu_wY5j2C7-34" value="&lt;font color=&quot;#000000&quot;&gt;sample&lt;/font&gt;" style="rounded=1;whiteSpace=wrap;html=1;fontSize=14;strokeColor=#ae4132;strokeWidth=0;fillColor=#FFEDEB;opacity=80;arcSize=10;verticalAlign=top;" parent="1" vertex="1">
                    <mxGeometry x="140" y="520" width="280" height="110" as="geometry"/>
                </mxCell>
                <mxCell id="JKHgZj_2bdWu_wY5j2C7-33" value="&lt;font color=&quot;#000000&quot;&gt;guard&lt;/font&gt;" style="rounded=1;whiteSpace=wrap;html=1;fontSize=14;strokeColor=#ae4132;strokeWidth=0;fillColor=#FFEDEB;opacity=80;arcSize=10;verticalAlign=top;" parent="1" vertex="1">
                    <mxGeometry x="460" y="520" width="280" height="110" as="geometry"/>
                </mxCell>
                <mxCell id="vwQASHEIDxWDL49iyelu-1" value="Event" style="rounded=0;whiteSpace=wrap;html=1;strokeColor=none;fillColor=#94c160;" parent="1" vertex="1">
                    <mxGeometry x="360" y="120" width="120" height="40" as="geometry"/>
                </mxCell>
                <mxCell id="vwQASHEIDxWDL49iyelu-2" value="&lt;font color=&quot;#ffffff&quot;&gt;Store&lt;/font&gt;" style="rounded=0;whiteSpace=wrap;html=1;strokeColor=none;fillColor=#7e57c2;" parent="1" vertex="1">
                    <mxGeometry x="200" y="120" width="120" height="40" as="geometry"/>
                </mxCell>
                <mxCell id="VP-ZB3kx-WjvmtwbaBvV-1" value="Effect" style="rounded=0;whiteSpace=wrap;html=1;strokeColor=none;fillColor=#249f93;" parent="1" vertex="1">
                    <mxGeometry x="520" y="120" width="120" height="40" as="geometry"/>
                </mxCell>
                <mxCell id="MCDYLZkzLzpOc8M5B_pm-1" value="&lt;p style=&quot;line-height: 1;&quot;&gt;Концепция effector&lt;/p&gt;" style="text;html=1;strokeColor=none;fillColor=none;align=center;verticalAlign=middle;whiteSpace=wrap;rounded=0;fontStyle=1;fontSize=20;" parent="1" vertex="1">
                    <mxGeometry x="160" y="10" width="520" height="40" as="geometry"/>
                </mxCell>
                <mxCell id="OxcBCm7EHjJSoYk0Uk7u-1" value="3 вида узлов" style="text;html=1;strokeColor=none;fillColor=none;align=center;verticalAlign=middle;whiteSpace=wrap;rounded=0;fontColor=default;fontSize=14;" parent="1" vertex="1">
                    <mxGeometry x="360" y="80" width="120" height="30" as="geometry"/>
                </mxCell>
                <mxCell id="JKHgZj_2bdWu_wY5j2C7-1" value="&lt;font color=&quot;#ffffff&quot;&gt;Store&lt;/font&gt;" style="rounded=0;whiteSpace=wrap;html=1;strokeColor=none;fillColor=#7e57c2;" parent="1" vertex="1">
                    <mxGeometry x="280" y="280" width="120" height="20" as="geometry"/>
                </mxCell>
                <mxCell id="JKHgZj_2bdWu_wY5j2C7-2" value="&lt;font color=&quot;#ffffff&quot;&gt;Store&lt;/font&gt;" style="rounded=0;whiteSpace=wrap;html=1;strokeColor=none;fillColor=#7e57c2;" parent="1" vertex="1">
                    <mxGeometry x="280" y="320" width="120" height="20" as="geometry"/>
                </mxCell>
                <mxCell id="JKHgZj_2bdWu_wY5j2C7-6" style="edgeStyle=orthogonalEdgeStyle;rounded=0;orthogonalLoop=1;jettySize=auto;html=1;exitX=0;exitY=0.5;exitDx=0;exitDy=0;entryX=1;entryY=0.5;entryDx=0;entryDy=0;dashed=1;fontSize=14;fontColor=#000000;strokeColor=#94C160;" parent="1" source="JKHgZj_2bdWu_wY5j2C7-5" target="JKHgZj_2bdWu_wY5j2C7-1" edge="1">
                    <mxGeometry relative="1" as="geometry"/>
                </mxCell>
                <mxCell id="JKHgZj_2bdWu_wY5j2C7-5" value="Event" style="rounded=0;whiteSpace=wrap;html=1;strokeColor=none;fillColor=#94c160;" parent="1" vertex="1">
                    <mxGeometry x="440" y="280" width="120" height="20" as="geometry"/>
                </mxCell>
                <mxCell id="JKHgZj_2bdWu_wY5j2C7-10" style="edgeStyle=orthogonalEdgeStyle;rounded=0;orthogonalLoop=1;jettySize=auto;html=1;exitX=0;exitY=0.5;exitDx=0;exitDy=0;entryX=1;entryY=0.5;entryDx=0;entryDy=0;dashed=1;fontSize=14;fontColor=#000000;strokeColor=#249F93;" parent="1" source="JKHgZj_2bdWu_wY5j2C7-9" target="JKHgZj_2bdWu_wY5j2C7-2" edge="1">
                    <mxGeometry relative="1" as="geometry"/>
                </mxCell>
                <mxCell id="JKHgZj_2bdWu_wY5j2C7-9" value="Effect" style="rounded=0;whiteSpace=wrap;html=1;strokeColor=none;fillColor=#249f93;" parent="1" vertex="1">
                    <mxGeometry x="440" y="320" width="120" height="20" as="geometry"/>
                </mxCell>
                <mxCell id="JKHgZj_2bdWu_wY5j2C7-11" value="Описание взаимодействия" style="text;html=1;strokeColor=none;fillColor=none;align=center;verticalAlign=middle;whiteSpace=wrap;rounded=0;fontColor=default;fontSize=14;" parent="1" vertex="1">
                    <mxGeometry x="320" y="240" width="210" height="30" as="geometry"/>
                </mxCell>
                <mxCell id="JKHgZj_2bdWu_wY5j2C7-12" value="&lt;font color=&quot;#ffffff&quot;&gt;Store&lt;/font&gt;" style="rounded=0;whiteSpace=wrap;html=1;strokeColor=none;fillColor=#7e57c2;" parent="1" vertex="1">
                    <mxGeometry x="280" y="360" width="120" height="20" as="geometry"/>
                </mxCell>
                <mxCell id="JKHgZj_2bdWu_wY5j2C7-13" value="&lt;font color=&quot;#ffffff&quot;&gt;Store&lt;/font&gt;" style="rounded=0;whiteSpace=wrap;html=1;strokeColor=none;fillColor=#7e57c2;" parent="1" vertex="1">
                    <mxGeometry x="280" y="400" width="120" height="20" as="geometry"/>
                </mxCell>
                <mxCell id="JKHgZj_2bdWu_wY5j2C7-14" style="edgeStyle=orthogonalEdgeStyle;rounded=0;orthogonalLoop=1;jettySize=auto;html=1;exitX=0;exitY=0.5;exitDx=0;exitDy=0;entryX=1;entryY=0.5;entryDx=0;entryDy=0;dashed=1;fontSize=14;fontColor=#000000;strokeColor=#94C160;" parent="1" source="JKHgZj_2bdWu_wY5j2C7-15" target="JKHgZj_2bdWu_wY5j2C7-12" edge="1">
                    <mxGeometry relative="1" as="geometry"/>
                </mxCell>
                <mxCell id="JKHgZj_2bdWu_wY5j2C7-15" value="Event" style="rounded=0;whiteSpace=wrap;html=1;strokeColor=none;fillColor=#94c160;" parent="1" vertex="1">
                    <mxGeometry x="440" y="360" width="120" height="20" as="geometry"/>
                </mxCell>
                <mxCell id="JKHgZj_2bdWu_wY5j2C7-16" style="edgeStyle=orthogonalEdgeStyle;rounded=0;orthogonalLoop=1;jettySize=auto;html=1;exitX=0;exitY=0.5;exitDx=0;exitDy=0;entryX=1;entryY=0.5;entryDx=0;entryDy=0;dashed=1;fontSize=14;fontColor=#000000;strokeColor=#249F93;" parent="1" source="JKHgZj_2bdWu_wY5j2C7-17" target="JKHgZj_2bdWu_wY5j2C7-13" edge="1">
                    <mxGeometry relative="1" as="geometry"/>
                </mxCell>
                <mxCell id="JKHgZj_2bdWu_wY5j2C7-17" value="Effect" style="rounded=0;whiteSpace=wrap;html=1;strokeColor=none;fillColor=#249f93;" parent="1" vertex="1">
                    <mxGeometry x="440" y="400" width="120" height="20" as="geometry"/>
                </mxCell>
                <mxCell id="JKHgZj_2bdWu_wY5j2C7-18" value="Связи между узлами" style="text;html=1;strokeColor=none;fillColor=none;align=center;verticalAlign=middle;whiteSpace=wrap;rounded=0;fontColor=default;fontSize=14;" parent="1" vertex="1">
                    <mxGeometry x="320" y="480" width="210" height="30" as="geometry"/>
                </mxCell>
                <mxCell id="JKHgZj_2bdWu_wY5j2C7-24" style="edgeStyle=orthogonalEdgeStyle;rounded=0;orthogonalLoop=1;jettySize=auto;html=1;exitX=0;exitY=0.5;exitDx=0;exitDy=0;dashed=1;fontSize=14;fontColor=#000000;strokeColor=#7E57C2;" parent="1" source="JKHgZj_2bdWu_wY5j2C7-20" target="JKHgZj_2bdWu_wY5j2C7-21" edge="1">
                    <mxGeometry relative="1" as="geometry"/>
                </mxCell>
                <mxCell id="JKHgZj_2bdWu_wY5j2C7-25" style="edgeStyle=orthogonalEdgeStyle;rounded=0;orthogonalLoop=1;jettySize=auto;html=1;exitX=1;exitY=0.5;exitDx=0;exitDy=0;entryX=0.5;entryY=0;entryDx=0;entryDy=0;dashed=1;fontSize=14;fontColor=#000000;strokeColor=#7E57C2;" parent="1" source="JKHgZj_2bdWu_wY5j2C7-20" target="JKHgZj_2bdWu_wY5j2C7-23" edge="1">
                    <mxGeometry relative="1" as="geometry"/>
                </mxCell>
                <mxCell id="JKHgZj_2bdWu_wY5j2C7-20" value="&lt;font color=&quot;#ffffff&quot;&gt;Store&lt;/font&gt;" style="rounded=0;whiteSpace=wrap;html=1;strokeColor=none;fillColor=#7E57C2;" parent="1" vertex="1">
                    <mxGeometry x="220" y="550" width="120" height="20" as="geometry"/>
                </mxCell>
                <mxCell id="JKHgZj_2bdWu_wY5j2C7-21" value="Event" style="rounded=0;whiteSpace=wrap;html=1;strokeColor=none;fillColor=#94c160;" parent="1" vertex="1">
                    <mxGeometry x="140" y="590" width="120" height="20" as="geometry"/>
                </mxCell>
                <mxCell id="JKHgZj_2bdWu_wY5j2C7-23" value="Effect" style="rounded=0;whiteSpace=wrap;html=1;strokeColor=none;fillColor=#249f93;" parent="1" vertex="1">
                    <mxGeometry x="300" y="590" width="120" height="20" as="geometry"/>
                </mxCell>
                <mxCell id="JKHgZj_2bdWu_wY5j2C7-30" style="edgeStyle=orthogonalEdgeStyle;rounded=0;orthogonalLoop=1;jettySize=auto;html=1;exitX=0;exitY=0.5;exitDx=0;exitDy=0;entryX=0.5;entryY=0;entryDx=0;entryDy=0;dashed=1;fontSize=14;fontColor=#000000;strokeColor=#94C160;" parent="1" source="JKHgZj_2bdWu_wY5j2C7-27" target="JKHgZj_2bdWu_wY5j2C7-28" edge="1">
                    <mxGeometry relative="1" as="geometry"/>
                </mxCell>
                <mxCell id="JKHgZj_2bdWu_wY5j2C7-31" style="edgeStyle=orthogonalEdgeStyle;rounded=0;orthogonalLoop=1;jettySize=auto;html=1;exitX=1;exitY=0.5;exitDx=0;exitDy=0;entryX=0.5;entryY=0;entryDx=0;entryDy=0;dashed=1;fontSize=14;fontColor=#000000;strokeColor=#94C160;" parent="1" source="JKHgZj_2bdWu_wY5j2C7-27" target="JKHgZj_2bdWu_wY5j2C7-29" edge="1">
                    <mxGeometry relative="1" as="geometry"/>
                </mxCell>
                <mxCell id="JKHgZj_2bdWu_wY5j2C7-27" value="Event" style="rounded=0;whiteSpace=wrap;html=1;strokeColor=none;fillColor=#94c160;" parent="1" vertex="1">
                    <mxGeometry x="540" y="550" width="120" height="20" as="geometry"/>
                </mxCell>
                <mxCell id="JKHgZj_2bdWu_wY5j2C7-28" value="Event" style="rounded=0;whiteSpace=wrap;html=1;strokeColor=none;fillColor=#94c160;" parent="1" vertex="1">
                    <mxGeometry x="460" y="590" width="120" height="20" as="geometry"/>
                </mxCell>
                <mxCell id="JKHgZj_2bdWu_wY5j2C7-29" value="Event" style="rounded=0;whiteSpace=wrap;html=1;strokeColor=none;fillColor=#94c160;" parent="1" vertex="1">
                    <mxGeometry x="620" y="590" width="120" height="20" as="geometry"/>
                </mxCell>
                <mxCell id="qt78YXlcxsdXO65hNlwM-1" value="&lt;p style=&quot;line-height: 1.5;&quot;&gt;🔗 Документация: https://effector.dev/docs/api/effector&lt;br&gt;🔗 Источник терминологии: https://ru.wikipedia.org/wiki/Дискретизация&lt;/p&gt;" style="text;html=1;strokeColor=none;fillColor=none;align=left;verticalAlign=top;whiteSpace=wrap;rounded=0;fontSize=14;fontColor=default;opacity=80;" parent="1" vertex="1">
                    <mxGeometry x="160" y="680" width="520" height="70" as="geometry"/>
                </mxCell>
            </root>
        </mxGraphModel>
    </diagram>
    <diagram id="Iz6EY0P6Ox3BIHuAO60W" name="Page-2">
        <mxGraphModel dx="883" dy="425" grid="1" gridSize="10" guides="1" tooltips="1" connect="1" arrows="1" fold="1" page="1" pageScale="1" pageWidth="850" pageHeight="1100" math="0" shadow="0">
            <root>
                <mxCell id="0"/>
                <mxCell id="1" parent="0"/>
                <mxCell id="qklJ1Q-UYqRIzcKlhbXP-1" value="host" style="rounded=0;whiteSpace=wrap;html=1;verticalAlign=top;align=left;spacing=0;spacingTop=-22;" parent="1" vertex="1">
                    <mxGeometry x="160" y="100" width="480" height="320" as="geometry"/>
                </mxCell>
                <mxCell id="qklJ1Q-UYqRIzcKlhbXP-3" value="app1" style="rounded=0;whiteSpace=wrap;html=1;verticalAlign=top;align=left;spacing=0;spacingTop=-22;strokeWidth=2;strokeColor=#999999;" parent="1" vertex="1">
                    <mxGeometry x="190" y="180" width="180" height="220" as="geometry"/>
                </mxCell>
                <mxCell id="qklJ1Q-UYqRIzcKlhbXP-4" value="app2" style="rounded=0;whiteSpace=wrap;html=1;verticalAlign=top;align=left;spacing=0;spacingTop=-22;strokeColor=#999999;strokeWidth=2;" parent="1" vertex="1">
                    <mxGeometry x="430" y="180" width="180" height="220" as="geometry"/>
                </mxCell>
                <mxCell id="qklJ1Q-UYqRIzcKlhbXP-5" style="edgeStyle=orthogonalEdgeStyle;rounded=0;orthogonalLoop=1;jettySize=auto;html=1;exitX=1;exitY=0.5;exitDx=0;exitDy=0;entryX=0;entryY=0.5;entryDx=0;entryDy=0;strokeColor=#9673A6;" parent="1" source="qklJ1Q-UYqRIzcKlhbXP-6" target="qklJ1Q-UYqRIzcKlhbXP-12" edge="1">
                    <mxGeometry relative="1" as="geometry"/>
                </mxCell>
                <object label="&lt;b style=&quot;color: rgb(150, 115, 166); font-size: 12px;&quot;&gt;🛢️&amp;nbsp;&lt;/b&gt;&lt;font style=&quot;font-size: 12px;&quot; color=&quot;#9673a6&quot;&gt;&lt;b&gt;model1 (async)&lt;/b&gt;&lt;/font&gt;" id="qklJ1Q-UYqRIzcKlhbXP-6">
                    <mxCell style="rounded=0;whiteSpace=wrap;html=1;labelBackgroundColor=none;fontSize=14;strokeColor=#9673a6;fillColor=#e1d5e7;align=left;verticalAlign=top;labelPosition=center;verticalLabelPosition=middle;spacingTop=-23;spacing=0;strokeWidth=1;arcSize=4;dashed=1;dashPattern=1 2;comic=0;movable=1;opacity=50;" parent="1" vertex="1">
                        <mxGeometry x="210" y="120" width="140" height="20" as="geometry"/>
                    </mxCell>
                </object>
                <mxCell id="qklJ1Q-UYqRIzcKlhbXP-7" value="➕" style="rounded=0;whiteSpace=wrap;html=1;align=right;" parent="1" vertex="1">
                    <mxGeometry x="240" y="270" width="80" height="20" as="geometry"/>
                </mxCell>
                <mxCell id="qklJ1Q-UYqRIzcKlhbXP-8" value="➖" style="rounded=0;whiteSpace=wrap;html=1;align=right;" parent="1" vertex="1">
                    <mxGeometry x="240" y="300" width="80" height="20" as="geometry"/>
                </mxCell>
                <mxCell id="qklJ1Q-UYqRIzcKlhbXP-9" value="➖" style="rounded=0;whiteSpace=wrap;html=1;align=right;" parent="1" vertex="1">
                    <mxGeometry x="240" y="330" width="80" height="20" as="geometry"/>
                </mxCell>
                <mxCell id="qklJ1Q-UYqRIzcKlhbXP-10" value="➖" style="rounded=0;whiteSpace=wrap;html=1;align=right;" parent="1" vertex="1">
                    <mxGeometry x="240" y="360" width="80" height="20" as="geometry"/>
                </mxCell>
                <mxCell id="qklJ1Q-UYqRIzcKlhbXP-11" value="&lt;p style=&quot;line-height: 1;&quot;&gt;Микрофронтэнды и effector (схема приложения)&amp;nbsp;&lt;/p&gt;" style="text;html=1;strokeColor=none;fillColor=none;align=center;verticalAlign=middle;whiteSpace=wrap;rounded=0;fontStyle=1;fontSize=20;" parent="1" vertex="1">
                    <mxGeometry x="145" y="10" width="510" height="40" as="geometry"/>
                </mxCell>
                <object label="&lt;b style=&quot;color: rgb(150, 115, 166); font-size: 12px;&quot;&gt;🛢️&amp;nbsp;&lt;/b&gt;&lt;font style=&quot;font-size: 12px;&quot; color=&quot;#9673a6&quot;&gt;&lt;b&gt;model2 (local storage)&lt;/b&gt;&lt;/font&gt;" id="qklJ1Q-UYqRIzcKlhbXP-12">
                    <mxCell style="rounded=0;html=1;labelBackgroundColor=none;fontSize=14;strokeColor=#9673a6;fillColor=#e1d5e7;align=left;verticalAlign=top;labelPosition=center;verticalLabelPosition=middle;spacingTop=-23;spacing=0;strokeWidth=1;arcSize=4;dashed=1;dashPattern=1 2;comic=0;movable=1;opacity=50;" parent="1" vertex="1">
                        <mxGeometry x="450" y="120" width="140" height="20" as="geometry"/>
                    </mxCell>
                </object>
                <mxCell id="qklJ1Q-UYqRIzcKlhbXP-13" value="☑️ Вкл | Выкл" style="text;html=1;strokeColor=none;fillColor=none;align=left;verticalAlign=middle;whiteSpace=wrap;rounded=0;" parent="1" vertex="1">
                    <mxGeometry x="458.12" y="260" width="123.75" height="30" as="geometry"/>
                </mxCell>
                <mxCell id="qklJ1Q-UYqRIzcKlhbXP-14" style="edgeStyle=orthogonalEdgeStyle;rounded=0;orthogonalLoop=1;jettySize=auto;html=1;exitX=0.5;exitY=0;exitDx=0;exitDy=0;entryX=0.5;entryY=1;entryDx=0;entryDy=0;dashed=1;strokeColor=#4A90C4;" parent="1" source="qklJ1Q-UYqRIzcKlhbXP-15" target="qklJ1Q-UYqRIzcKlhbXP-12" edge="1">
                    <mxGeometry relative="1" as="geometry"/>
                </mxCell>
                <mxCell id="qklJ1Q-UYqRIzcKlhbXP-15" value="hook2" style="rounded=0;whiteSpace=wrap;html=1;fillColor=#D6E6F2;strokeColor=#4A90C4;fontColor=#000000;" parent="1" vertex="1">
                    <mxGeometry x="449.99" y="200" width="140" height="20" as="geometry"/>
                </mxCell>
                <mxCell id="vbM3KCumJFX6MH5yZZw1-1" style="edgeStyle=orthogonalEdgeStyle;rounded=0;orthogonalLoop=1;jettySize=auto;html=1;exitX=0.5;exitY=0;exitDx=0;exitDy=0;entryX=0;entryY=1;entryDx=0;entryDy=0;dashed=1;fontSize=14;fontColor=#000000;strokeColor=#4A90C4;" parent="1" source="qklJ1Q-UYqRIzcKlhbXP-16" target="qklJ1Q-UYqRIzcKlhbXP-12" edge="1">
                    <mxGeometry relative="1" as="geometry">
                        <Array as="points">
                            <mxPoint x="280" y="160"/>
                            <mxPoint x="450" y="160"/>
                        </Array>
                    </mxGeometry>
                </mxCell>
                <mxCell id="qklJ1Q-UYqRIzcKlhbXP-16" value="hook2" style="rounded=0;whiteSpace=wrap;html=1;fillColor=#D6E6F2;strokeColor=#4A90C4;fontColor=#191919;" parent="1" vertex="1">
                    <mxGeometry x="210" y="200" width="140" height="20" as="geometry"/>
                </mxCell>
                <mxCell id="qklJ1Q-UYqRIzcKlhbXP-17" style="edgeStyle=orthogonalEdgeStyle;rounded=0;orthogonalLoop=1;jettySize=auto;html=1;exitX=0;exitY=0.5;exitDx=0;exitDy=0;entryX=0;entryY=0.5;entryDx=0;entryDy=0;dashed=1;strokeColor=#4A90C4;" parent="1" source="qklJ1Q-UYqRIzcKlhbXP-18" target="qklJ1Q-UYqRIzcKlhbXP-6" edge="1">
                    <mxGeometry relative="1" as="geometry">
                        <Array as="points">
                            <mxPoint x="210" y="230"/>
                            <mxPoint x="170" y="230"/>
                            <mxPoint x="170" y="130"/>
                        </Array>
                    </mxGeometry>
                </mxCell>
                <mxCell id="qklJ1Q-UYqRIzcKlhbXP-18" value="hook1" style="rounded=0;whiteSpace=wrap;html=1;fillColor=#D6E6F2;strokeColor=#4A90C4;fontColor=#050505;" parent="1" vertex="1">
                    <mxGeometry x="210" y="230" width="140" height="20" as="geometry"/>
                </mxCell>
            </root>
        </mxGraphModel>
    </diagram>
    <diagram id="6rxKL3jCLepbz09nV2yK" name="Page-3">
        <mxGraphModel dx="883" dy="425" grid="1" gridSize="10" guides="1" tooltips="1" connect="1" arrows="1" fold="1" page="1" pageScale="1" pageWidth="850" pageHeight="1100" math="0" shadow="0">
            <root>
                <mxCell id="0"/>
                <mxCell id="1" parent="0"/>
                <mxCell id="46-PxRHVnb5EdUMemJkg-1" value="&lt;p style=&quot;line-height: 1;&quot;&gt;Критэрии оценки&lt;/p&gt;" style="text;html=1;strokeColor=none;fillColor=none;align=center;verticalAlign=middle;whiteSpace=wrap;rounded=0;fontStyle=1;fontSize=20;" parent="1" vertex="1">
                    <mxGeometry x="160" y="10" width="560" height="40" as="geometry"/>
                </mxCell>
                <mxCell id="46-PxRHVnb5EdUMemJkg-3" value="" style="rounded=0;whiteSpace=wrap;html=1;fontSize=15;" parent="1" vertex="1">
                    <mxGeometry x="160" y="80" width="560" height="1240" as="geometry"/>
                </mxCell>
                <mxCell id="46-PxRHVnb5EdUMemJkg-2" value="&lt;p style=&quot;line-height: 1.5&quot;&gt;&lt;/p&gt;&lt;div style=&quot;font-size: 15px&quot;&gt;&lt;span&gt;✔️ возможность использовать несколько сторов одновременно&lt;/span&gt;&lt;/div&gt;&lt;div style=&quot;font-size: 15px&quot;&gt;&lt;br&gt;&lt;span&gt;✔️ наличие хорошо написанной &lt;a href=&quot;https://effector.dev/docs/api/effector&quot;&gt;документации&lt;/a&gt;&lt;/span&gt;&lt;/div&gt;&lt;div style=&quot;font-size: 15px&quot;&gt;&lt;br&gt;&lt;span&gt;✔️ большое коммьюнити:&lt;/span&gt;&lt;/div&gt;&lt;div style=&quot;font-size: 15px&quot;&gt;&lt;ol&gt;&lt;li&gt;Есть ролики на ютюбе с лайвкодингом, бэст практис и тд&lt;/li&gt;&lt;li&gt;Есть актуальные репозитории с примерами имплементации&lt;/li&gt;&lt;li&gt;Есть &lt;a href=&quot;https://t.me/effector_ru&quot;&gt;тепеграм канал&lt;/a&gt;&lt;/li&gt;&lt;/ol&gt;&lt;/div&gt;&lt;div style=&quot;font-size: 15px&quot;&gt;&lt;br&gt;✔️&amp;nbsp;&lt;span&gt;Удобная работа с тэстированием и ssr&lt;/span&gt;&lt;/div&gt;&lt;div style=&quot;font-size: 15px&quot;&gt;&lt;span&gt;&lt;br&gt;&lt;/span&gt;&lt;/div&gt;&lt;div style=&quot;font-size: 15px&quot;&gt;&lt;span&gt;🤔&amp;nbsp;цена внедрения (сложно оценить насколько быстро другие люди смогут разобраться в концепции эффектора)&lt;/span&gt;&lt;/div&gt;&lt;div style=&quot;font-size: 15px&quot;&gt;&lt;br&gt;&lt;span&gt;✔️ удобство взаимодействия с микрофронтедами на базе module federation&lt;/span&gt;&lt;/div&gt;&lt;div style=&quot;font-size: 15px&quot;&gt;&lt;br&gt;🤔&lt;span&gt;&amp;nbsp;единый источник достоверных данных (если правильно проектировать сторы и не дублировать данные, для этого требуются договорённости, знания паттернов)&lt;/span&gt;&lt;/div&gt;&lt;div style=&quot;font-size: 15px&quot;&gt;&lt;br&gt;&lt;span&gt;✔️ изоляция управления состоянием&lt;/span&gt;&lt;/div&gt;&lt;div&gt;&lt;br&gt;&lt;span&gt;⛔&amp;nbsp;самостоятельно разработанный инструмент (в разработке должны принимать участие все желающие разработчики, в идеале, не желающие — тоже)&lt;/span&gt;&lt;/div&gt;&lt;div style=&quot;font-size: 15px&quot;&gt;&lt;br&gt;&lt;span&gt;✔️ удобный инструмент для бизнес-логики&lt;/span&gt;&lt;/div&gt;&lt;div style=&quot;font-size: 15px&quot;&gt;&lt;br&gt;✔️&lt;span&gt;&amp;nbsp;простые вещи делаются просто&lt;/span&gt;&lt;/div&gt;&lt;div style=&quot;font-size: 15px&quot;&gt;&lt;br&gt;🤔&lt;span&gt;&amp;nbsp;наличие адекватного dev-tools (effector-logger не такой удобный как у редакса)&lt;/span&gt;&lt;/div&gt;&lt;div style=&quot;font-size: 15px&quot;&gt;&lt;br&gt;&lt;span&gt;✔️ зависимостей нет&lt;/span&gt;&lt;/div&gt;&lt;div style=&quot;font-size: 15px&quot;&gt;&lt;br&gt;&lt;span&gt;✔️ к&lt;/span&gt;&lt;span&gt;омпании уже использующие эффектор&lt;/span&gt;&lt;/div&gt;&lt;div style=&quot;font-size: 15px&quot;&gt;&lt;img height=&quot;323&quot; width=&quot;400&quot; src=&quot;data:image/png;base64,iVBORw0KGgoAAAANSUhEUgAAAZAAAAFDCAIAAACbd88aAAAACXBIWXMAAAsTAAALEwEAmpwYAAAGymlUWHRYTUw6Y29tLmFkb2JlLnhtcAAAAAAAPD94cGFja2V0IGJlZ2luPSLvu78iIGlkPSJXNU0wTXBDZWhpSHpyZVN6TlRjemtjOWQiPz4gPHg6eG1wbWV0YSB4bWxuczp4PSJhZG9iZTpuczptZXRhLyIgeDp4bXB0az0iQWRvYmUgWE1QIENvcmUgNS42LWMxNDUgNzkuMTYzNDk5LCAyMDE4LzA4LzEzLTE2OjQwOjIyICAgICAgICAiPiA8cmRmOlJERiB4bWxuczpyZGY9Imh0dHA6Ly93d3cudzMub3JnLzE5OTkvMDIvMjItcmRmLXN5bnRheC1ucyMiPiA8cmRmOkRlc2NyaXB0aW9uIHJkZjphYm91dD0iIiB4bWxuczp4bXA9Imh0dHA6Ly9ucy5hZG9iZS5jb20veGFwLzEuMC8iIHhtbG5zOnhtcE1NPSJodHRwOi8vbnMuYWRvYmUuY29tL3hhcC8xLjAvbW0vIiB4bWxuczpzdEV2dD0iaHR0cDovL25zLmFkb2JlLmNvbS94YXAvMS4wL3NUeXBlL1Jlc291cmNlRXZlbnQjIiB4bWxuczpkYz0iaHR0cDovL3B1cmwub3JnL2RjL2VsZW1lbnRzLzEuMS8iIHhtbG5zOnBob3Rvc2hvcD0iaHR0cDovL25zLmFkb2JlLmNvbS9waG90b3Nob3AvMS4wLyIgeG1wOkNyZWF0b3JUb29sPSJBZG9iZSBQaG90b3Nob3AgQ0MgMjAxOSAoV2luZG93cykiIHhtcDpDcmVhdGVEYXRlPSIyMDIyLTA4LTI5VDA4OjM0OjEzKzAzOjAwIiB4bXA6TWV0YWRhdGFEYXRlPSIyMDIyLTA4LTI5VDA4OjQ0OjExKzAzOjAwIiB4bXA6TW9kaWZ5RGF0ZT0iMjAyMi0wOC0yOVQwODo0NDoxMSswMzowMCIgeG1wTU06SW5zdGFuY2VJRD0ieG1wLmlpZDozMmU4MDJjYi0wNjgzLTY2NGYtODVhNS1mMjc5NzVkNDNlMTMiIHhtcE1NOkRvY3VtZW50SUQ9ImFkb2JlOmRvY2lkOnBob3Rvc2hvcDo1ZmIwZDE4Zi0zYWFmLTM1NGQtOWU1YS0zZmJkOWIwNTY0YmQiIHhtcE1NOk9yaWdpbmFsRG9jdW1lbnRJRD0ieG1wLmRpZDpjM2NmMTJmMC1jMGI3LTMwNDctODQ5Zi04ZmM2ZDRjNzZhMDgiIGRjOmZvcm1hdD0iaW1hZ2UvcG5nIiBwaG90b3Nob3A6Q29sb3JNb2RlPSIzIiBwaG90b3Nob3A6SUNDUHJvZmlsZT0ic1JHQiBJRUM2MTk2Ni0yLjEiPiA8eG1wTU06SGlzdG9yeT4gPHJkZjpTZXE+IDxyZGY6bGkgc3RFdnQ6YWN0aW9uPSJjcmVhdGVkIiBzdEV2dDppbnN0YW5jZUlEPSJ4bXAuaWlkOmMzY2YxMmYwLWMwYjctMzA0Ny04NDlmLThmYzZkNGM3NmEwOCIgc3RFdnQ6d2hlbj0iMjAyMi0wOC0yOVQwODozNDoxMyswMzowMCIgc3RFdnQ6c29mdHdhcmVBZ2VudD0iQWRvYmUgUGhvdG9zaG9wIENDIDIwMTkgKFdpbmRvd3MpIi8+IDxyZGY6bGkgc3RFdnQ6YWN0aW9uPSJzYXZlZCIgc3RFdnQ6aW5zdGFuY2VJRD0ieG1wLmlpZDpjYTNkOTQ2Yi00Y2EzLWZlNDUtOTY2Ni1lMzI5ODVkNTI5MWEiIHN0RXZ0OndoZW49IjIwMjItMDgtMjlUMDg6MzQ6MTMrMDM6MDAiIHN0RXZ0OnNvZnR3YXJlQWdlbnQ9IkFkb2JlIFBob3Rvc2hvcCBDQyAyMDE5IChXaW5kb3dzKSIgc3RFdnQ6Y2hhbmdlZD0iLyIvPiA8cmRmOmxpIHN0RXZ0OmFjdGlvbj0ic2F2ZWQiIHN0RXZ0Omluc3RhbmNlSUQ9InhtcC5paWQ6MzJlODAyY2ItMDY4My02NjRmLTg1YTUtZjI3OTc1ZDQzZTEzIiBzdEV2dDp3aGVuPSIyMDIyLTA4LTI5VDA4OjQ0OjExKzAzOjAwIiBzdEV2dDpzb2Z0d2FyZUFnZW50PSJBZG9iZSBQaG90b3Nob3AgQ0MgMjAxOSAoV2luZG93cykiIHN0RXZ0OmNoYW5nZWQ9Ii8iLz4gPC9yZGY6U2VxPiA8L3htcE1NOkhpc3Rvcnk+IDwvcmRmOkRlc2NyaXB0aW9uPiA8L3JkZjpSREY+IDwveDp4bXBtZXRhPiA8P3hwYWNrZXQgZW5kPSJyIj8+/y+pWgAAzSFJREFUeJzsnXV8FEcbx3+753dxN6IQCBAsuEux4G7FHYoW2uIUL05xKBKc4JbiLkGSkEAICYSEuOv53e68fywNAQIFSkvzdr+fwOdu9pnZmZXfzjzzzB5FCAEPDw9PaYD+2hXg4eHh+Vh4weLh4Sk18ILFw8NTauAFi4eHp9TACxYPD0+pgRcsHh6eUgMvWDw8PKUGXrB4eHhKDbxg8fDwlBqEX7sCYACG/ZABRUFE/VO14eHh+RfzNQVrZzB2XyNZajDA+xSJADRgKUGnOtTkFv9o9Xh4eP5tUF9rLeHE3VhznNStDf9KMJNRDAHerQgFAaA1kMvPcP4WOtXCke8pAd/b4uH5r/J1BGvDNTL2V5yYTXWs+rFZ7r1AnR/J1B5Y2pNXLB6e/yhfx+m+5gK6tcHHqxWA2p74oS9234bK8LdVi4eH59/NV/BhcYO/Oh5vp2ep8NttJOWBIrBUYEAdlLV5w6BNJSy9gBeZ8HX6xyrLw8PzL+Ir9LAYFjIxzOVvjOzORaH6IhKdTrwdSAVHqAykyXKy+fobw1V7CwoMCnX/bHV5eHj+NXwFwRLQgBDLz5CgyFcpYUnou4Os7EYt6ARNAVKzSH8/HB5JzT2Jo6GvNOtBIvl+D6EIpKJ/vso8PDz/Cr6O073OSnLvFqDA0UlUl+oYtp/YKdC/LlV1BjGoAAFAcGoqla0hB0MQNJYKT0GD+USVAaEjQqZTVfghIQ/Pf5KvFOnOArYAsPMOAZBRiI5VqB8OEYMapmVg7gJIMP0w8XagLE1gYLH/LlEVgnYFoUoIfuDh4fmP8PWW5jCAGIUMACjEUBuRkglQAAFhADFYEVgCiRC5aih1gBQU89Uqy8PD82/ga68lJAAgFIBlASEUpihUv+pDCWiIhdAzlEoHAf3+WHgeHp7/DF9PsGgA4MLWWRZgYW+DdcNR2wE6HUCjUAUjAwqgBaApgAUEX62yRKtl0lOMsdFMSiJRK79aPXh4/tt8nbWENA2ogQI08gCAzEK4WMLHBifvUNM6oP9Oon+Gej3hZAGVHjYKtPDB6v1gjBBa/NNV1T+8rzl33BgRSlQFRKejRCJKLheWqyRt3UnSsFQubkxOyYiJyRcJZQSEW6pZYu+Vm4yhKDAM5DJdxYo2CoXFx+8lKSnJwcFBKBRqtdrdu3e7u7u3bNkyMjLy6tWrbdq08fLyess+MTHRxcWFoviO9F8lSWXM1jIUgYNCaCf7eg/5v4evI1haI0RiDO9Jfd8KAAp0iMvG7HbU2H1k5hmYSdGjK1b3pwq1yFERMU21r0zNHUxWnUOBHv/YrCaTlFCwfpHuwhloNZSJKSWVQSgkWg3JyjREPdKcPCiu08h0/AxR5er/UIW+BEYGSxf/wOrPuLlKyrjA1AQZ2UhKAk2/7m0TFmIRynlBQCMuAVotCQkzfDsooEOHthkZGYGBgUqlUqVS1axZs1OnTiXuZefOncOGDVu5cuX48eObN29+586dOnXqCASCbt265eXlzZkzZ+7cucXtDx061KdPn59++mnBggV/8wH4cwigByR/uRwdcDXVkG8gjeyEjtIShjJ6FnFq9rmSCctnXGS0r5nA24Q2FX6mZGfp9AdeZFxM0dxJJxn5gNpgQRtr2Ip7VLQaWt3+/+Z9J19BsBgCowazumNW21cpFeyw/z5pW5HaM5R6mg4TCVwsAGDtVUIAIQ0AczpQdb3RZgXR/iNLcwxPIvK+H2KMeyZwdKEcnUHRICwIASjK1AzWtkSr1t25Zoh6ZDZnheyb9u+WkJ+fHxoa2rBhQ5FIFBAQQNN0//79CSHHjx9/8uSJUCjUaDStW7euV68eZ3/q1CmDwdC1a1fu682bN2/dutWrVy93d3fu69WrV62traVSaXZ2trW1defOnY8cOeLk5OTv75+WlhYREdG0aVOxWPzhdhUUAiR56k9Zrh64eRHpyahTB4NGgDWCGAAaYCCQARROHQIYjBoDsRxbNyA3jwCIi3sxbty4otJmzpw5d+5cgeDtx7iJiUnlypVdXFxu3rx5586d7t27r1ixYsyYMXl5edOmTRsxYsRb9jKZrHLlyjY2NvjaFDKk121VdI7xSFPTauaf3z1J0JDet5R3XuqgYkc3MtlQXf6WQY6exKnZS5nGoyl6EEosQDVzQStboY2Eqm0ppD9RXy6nvlgdGXsuxWAklmUV1k72EpVS8Cwp7/L1jMtXXi6qbHt+UKUKltLPbs6/h6/0ehkCW5PX52RGK6rZSrLuGr5rggr2rxKPR2BeEI6PRNEowU5BIIDg73e7GeNjc8f2JXnZQu+KYNlXPjYABj2EIoAGIZREKvQoy6an5E8dTq/bK2nQ/K1CJk6cGBUVFRwcDGD16tUA+vfvv2vXrvHjx/v4+Mjl8tTUVCcnJ06woqKi+vTpYzAYbt68WatWLQC///77okWLqlatygnWjRs3FixYYG9vLxKJ8vLyqlSp0qhRo3nz5n3zzTf+/v4syw4ePHjq1KkTJ078cNNoCgq5iY0dzpxC+44AYGWJI4fQtAXAAjrAFADGj8HajQDg3xpnzsLDBWmFQgAymQxAjRo1AgICmjZtumDBgjFjxjg6OgYGBoaGhrZo0UKj0fj4+LRp08bGxqZChQqTJ08GYGFhkZ6e/vz5cwACgUAulwMICAi4e/duu3bt2rVr17Rp0yVLlpQrVw7As2fPdu7cmZeXN2LEiKpVq0ZFRe3cudPc3HzYsGF2dnbh4eGpqakikSgkJKRx48Z169b9Aue7GHqCs8l6kmLIqGfyV8qZHq6+E6P1ry5vZi2oYfnqLis0kge5TDNbYYaePZpikNNUPSuhjykdVchaiyhXBZWgJg/zGRaobyW8m2sUUFRNiz8XzePxtxaH38w3Wg8rV72ru1dNa1NzsYAAz/L0B55kbbqSUMdBYSf7W9SKISwFin7PQJ4QwoIIqC95x34FwRJQyNXgcTop8p2Us8eBEdTAALLlFio4QizA0zRkqfBbP6ptxdcZH8TBXAA367+5fixTuGQ6k5kqLOsDg/6PSgug1zM52bS5GWViAaMBhIBhaAdnJjG+cMEPoj2/09a2xYuJjY01MTHJzs4mhNjZ2VlaWgIICQmxtLTcunWrk5OTTqeztn7VmO3bt9vZ2QkEgp07d3KCZWNj4+joqFAoOIPx48cPHTp0zZo1QUFB+/fv9/b2ZhiGM8jOzs7KylIoFPfu3fvzxhE4OCIyAgMHv0rJyUWLljh0EF17AAx0eowbja3bX20NOoclc1Gv7uvnBE3TGo3m+fPnWq22fPnyjo6Oixcvnj59OoDly5czDPPzzz/7+fn17du3Tp06Dx48ALBz584TJ05kZmYCWLBggYmJiVKpXLhwobm5+ebNm/fu3SuRSAYMGDB8+PCJEyd+8803CQkJbm5ugwcPvnHjRqdOnXQ6nVqt3rVr1+PHj3ft2rVq1SorK6vs7GyZTHbs2LHWrVt/7pkuAQsBrrY0KzCgluXnd69Y4HG2QWghCKitsClWzIY4XbyK1LISXMlktj3XRaYaTE3olbVMyipohYAiBL1chC9V7IlUo4WIytKT3+L1B2rJJB/sbj3MenD42R4Xmf007zqd3SsX3VMU4G0hnl3faaSfvb1EAGDNg921navVc/QtsRwCHIq9eDr+Wp6ukBDW09yle7m2ftbl5EJpqjp77r31aqOOpgQsa6QoigJFs8wzVVo7j6Y/Vh0AYMXDXffTH8nFpgajlqZoASHPVKm17KvO9RtmJlYcir1w+PlZE4mF3qBhCENRdDVbn17l2roqbEuszAf4Oj2sZhXw2zn80gWKP05nQy88nYPfbqNQB5pCdRcMqE3ZvvmQ++UE6rrBTvH31k17/pTu1iWBY5lXakUIBAKi0wIwn7VMfWS3MeYJbecAhgEAhhE4uxqeR6v2bzP97qfi5ZQrV+7WrVtNmjRhGIZhGK77YG9vL5PJpk+frlQq5XJ5QECARCJJSEgIDAycP3++WCyeMmXKtGnTXFxcWJZlGIamX+mEQqFQKBSmpqZardbT09Pc3Dw3N9fS0vLSpUuXLl2iaZqm6Y8aUhGYyHH0ILKzX6exBD164bo1GjTHzAmv1Ypj5jwsW4AaDV99NTU1jYqK6tKli62t7blz51JSUqZPn+7j47Nnz57Tp0/PmTNHqVQajcaCggIvL6+OHTuOGzeuY8eOY8aMmT179u3bt+fPny+Xy3/66SeRSOTp6RkaGjp9+vS+ffsqlUpCSH5+fkJCgkwmmzp1aoUKFbp3756bm1upUqXk5OTo6OjNmzebmpoSQlasWCEQCPr37x8YGPhlBUtAUY2tS7gp2E+ZUKcBEUXRFIqrVbSSfZTP5htJgprVs3iSx2iElKaAnReu/r6yrJqFQADqULJBxWCouyiqkL2fw2Rp2cuZTEs74fv8WlqmIDh5h7UopXO5Hs2cS1Yie4lAZVSOvLR87+Uldar1utN757szG6nq7CGXZp19fg7afIgVIAS6/F9vr97dZdu35drm65XbIg8zeiVoEVgDCMAawejaV+rRzq0R1706E3f9yvPTkNnBoATLwKCu7dWyk3sTU7EcwN20iMCHu2DiBH0hQIHR72OMK0J3rGoyvY9Xy48+rsDXEqxNvamIp3AbT+Z2QyNvSMUUYSESUn1qQiQAAIZFtgrZKtAUDAwJe4k5R5CUi2NT/2bnIcuqTxyAQEBJpSAENM1mphOdlmjU8r7DZJ16UzJF3veDjfEqSiQSODgDFCiKtrLWXQpSDBhFm1kUlaTVam1sbAYNGsSy7Pbt2zMyMgAUFhYajcZhw4Y5OTmpVCoLCwsA58+fz87OvnPnDk3ThYWFJ0+eHDNmjEAgEAqFEskbzl+DwSAUCvPz862trY1GY0ZGRoUKFTp37pyenr57926W/eCrpgEAQiFi49ChPTy9MWIsALRoikePkZGFrGwAuBUMikL3zrhxG2npaNcG479DZAR0WgAgBBqNxs7OTq/Xa7VamUymVqsBVK1atUaNGiqVas6cORRFiUQiAJ6enk2aNAFQrVq1Fi1a7N69+/bt2+3atVMqlQCqV68+duxYrh+ak5MDID8/39fXd8+ePb/99tt333334sULzrJbt242NjYRERHu7u7Pnj0D0Lx5cy5LiWTpybxIbUUzepTX66N3NNlwMd3wQ3mpm4Ke8VjjphCM8BCPCFVfjNMTAfxdxXMqy+zFFICd8frQXOPMSlI7MQ3gVq5x7mPt80wjRaNvWcm8yrIi5YooZGaGa57nMSyF5g6i+dXk1gIEJhl2xOlijcQoojsFqwhDZleS1bQQnE0zJKrZgW5iMyFdyQICAQUDgRHN7UUdHYTBucz8CG1oks7cRGBWR1HXRlDRTPCkkNkWp2tj996b9EXOKUZ/obVLr2bOTd9ncyHh/siL8+NiLpi61Ohfsf27aqUyarqcnXL36XEb55qzag5vYF+NBbs7+oyYGJs6+QEQ00KFzKqQogNaLq5qXZ4lrIE10LTQz7pcUSFWClsIFeNrDBxaoYueMTBg69j6FG01l1lCKG/j0WRJ3Qk0RWmN+nWRgbtCfut7/sc631byNP2EpXZfR7AUMlz6GT3WYv5eMJagJYT6Y+6PO5xFM4GEAmsElQM3FxyaRPnal1Tcl4NJTzHGPKHMzAGAZYhOI/XvSnRazcEdkkbfABDXrEuZmIk8yon96mqvnAXLgFC0qTmTmmgID5E0eh3o8OzZM6lUOmzYMADbtm3Lz88HIBQKk5OTo6Ki1Gp1UlISTdPVq1dfu3atp6cn57ouW7bs2rVrBw4cKBKJMjMzlyxZYmVllZeXN2vWLF9f39zc3OTkZKPRCEAmk2VnZ9eqVWvAgAEFBQUrVqx4+fLlnzaQZaHVwacq6n+D7GxMm40ObZCfj4wsrF6Li5dxPxQiIYYOxvPnkElw4BBMTJCdgcwsANDrdXq93tnZ+eeff+7YsWPt2rVv3brVv3//3bt3BwcHx8fHA2BZVqfTAcjJyUlOTgbADQbT09MBxMTEdOjQwd7ePjY2lmGYw4cPDxkypGzZsgBMTEyOHDmyYcMGTsflcnm/fv1u3bqlVCqzsrKOHj26ePHiwMBAAFlZWZxgqVSqd9uYoWXX3lb6uomLC9b+eP3hEFU3Z5Gzgl4cobEUUQfjdUkqprKjMDaf2Risup9hvNTC1ExEbY/R3ojRDvKS2IlxOMXQ41yBSEr18JKkqNmFN5SP89kD9RRSGlcyjd/8ni8WUe08JAV6svGh+k6K4WIrs0IDicsxaglFBCQqlxEaidJIDCxUDLGVUE5SKiTfuOe5TsVATMPajJ7tK41Xsv2uKtUMgbkgX0MG31aurWtSw1zgLqdTtGyylnWRldC9I4TVas85SpP97Btz/b+TL246mzn42ZQtslnyYNf0aytJ1vM6Vbv/2mJGbbsKAFjC0sX8Sr9Fnbgbe96xTJ1DLZc2cKjCJdayqfB6RyB6Rk8MmjZl6tpKLd93ZcGgqmDhVsXKs6StBAa1hcS0qtWrcJaNDX+MyH728Pm5oy8uTana/z1llsBXe6e7jRRXplJxuUjIBsOiaJzOSVXRU4AFaAp2Zqho90/UiklNJDoNJZNDIGDzcpj451ardwkrVVN06WeIjTFERxpjnpjNXiFr2wUMozq8G3qtsIwngZ4Y9MbEuOLdoYoVX7nfWJblXOMAhg8fnpKScuTIEZFIlJOT4+zsbGZmptVqFy1a1K1bNwBHjhyZNWvWixcvvL2969WrV1BQEBcXp1artVotAFdXVz8/PxMTEwAmJiZLlixJSEgAoNFofH19uVHnnyIUIicHlrb4aRaqVoeXGzZvA4CrN3D1xiubwgJs2QI7B5iYAABhwF3hdnZ23bp18/Ly6tChw9q1a/fv3x8eHr59+3ahUBgdHd2uXbvU1NQ6deq4u7v7+/vXrVvXzc2tQ4cOnGu8Xbt2QqHQ1dVVLpffunVr3rx58+fPr1evXs+ePbOystq3b9+gQQMvLy9nZ+eYmJgxY8Z8//33FhYWRqMxICBAJBItWLDAxsamfv36BQUFdnZ2CoWiQ4cOTZs2fbeBNA2YCEzfjCQwk1IwEQgFlABwthQmJxusXejLzUy5rf63lL+Ha3aXlYwtKzGR0TAV2EtpPYt+VwtNxNSzbpYOYgpALxkdeLkw0FE0wFPc80qhrZiO6G5hJ6QABPlI2x3OHRisOt3EZKiHuM7ZgrBcJqSzhSkFAEqGxKnYQiMxsjicoD8cqYGVcF4NRW8XkUxAdbuhVOtZmAvAAiYUq2LPphl8TWmVjpXS1J1cpkdJgmVkUsXseS9TuZXMm0vZ/ujo2Sentndd37d8q2xtfr+gmedCdkNhPabVnNVNJotowa20R8Gp4ROr9S1eztWUEBAyumKPIrV6C0KITCjRixWLw3a6mzppGD0NylFu7e/a0Epi+ocNIFKEZsVcTX6gYfUUoDXqKlh4VLB0f1UKRRvZ12vr5EKJvdwaLJOlyStxp++F8BRDe/n3tJplMvxrpjcunzO6d/7CH9WnD3ObmPTU3GmjtNfOcV/1kQ8LfpmeN2dSWiPvjNbVU/2clTvWvlGUVqvVakvci0ajKW7GuW+KYFm2+Fdu8PXXm8aRm0d+mNI5NgaEgKhBCAjBqaNvXBLdu75KJwSkAIRgz1bs23/u3dJYllWpVJ9dGbVaXWJ68eNDCDEajZ9U7NNCIwKyG14sKJ447IEK27OuZRoYQiyP51J7sxO1r4/z0VQ9NmaOCVERQtpdL0RAVqaB/T1Nj/UZPz7WFC+5343CqxmG8yl6bMhYGPvGeSl7Lh/7c5QGlhBSIyhPtC87Rf96F0uitZUvFiyJ0vwUrsbBHOzKDnypI4QojcTieC725+B4Lo7m4mA2dmQteqrZ+Fzb43Zh92BlnOqN66EIgyE8MRGpKe4Mk8ulzLm9CVMEWFyuR9AMv3398ZPMZn3Tw8+vcFtDMqNlKyrU29f7rXIaHx+B5a57Y0o4vxzP8hKcdrUWb2uMNRWwzAXLyuAXRyx39d7b6WZqOGfT5ewP2FxHuqU+VrhhpQdWemKueNSV+dzWeSHbsMSu54Vp3FeGsIdiL0s21cQylwuJ99633xL5+j/z9a+CkkggFIKAaLWgBWbTl2gvnDY8CRdVrErbOYir1RVVrAaAzc8zPnti+sNC5W9rSE4WFKYAKMEbB7PI/fTy5ctjx47l5ub6+fk1atTI0tJSKpVeuXIlMzOzZ8+eEolELBbPmzfPxMSECwJ4/Pjxli1bhg0b9uTJk7y8vNGjRwOYO3du5cqV3d3dT58+nZ2dbWlp2bx586L+hdFoPHLkiL29fVGK7sEtSiQWV631odZqARl0Whw/+UZyXBxePINnOaDwT5ZwUhTFxSh8HlyQxLtIpW/Mwb8b5/UZFG+HioGzicBG/DrNVECBImrDa8eEisHDPAY0VbZYT628iWBPQxMAPz7SQCE4/FwXnWTINxIRTYlpPM8wQItHBUxdq1dXAlssyNnHjPY1E9wvYAa5iBVCSqVid8TrrWR0noH8VttkdLAyU08AQEM6eku6u4i3xOk1oCoqBI7Sks8BDdpcCIrOBFEDFgDGVe9tABbd3nDo9gZQwmY1B25oPq2CpStnfz8tUpOX5FSh41vlyEQSEKbQWMLguujgqQxavbZgcaMffczdWCBLl7816sT9mKCJt5Zd7bRVIZRSFKAvqO/RrKZ1r3y9iqKoXG1+C9d6fxwHFgrb0MynbU+Opik616C6k/wAytR+tcc0c/Z7/35LgBesN6AdXCixhGjUtK2D7s4V9e6N8l5DdME3jC9ihJ7ekrqNaBs7NjvDEBkhbdpad/eGasc6gZ0TBAIKoK1KmKN9+vRpz549XVxcnJ2dDx06tHHjxiZNmiQlJQ0YMCApKYkL/k5KSjp48GBMTEzZsmVbt249bNiwe/fuNWzYcO/evWlpaaNHj9bpdJs3b+7Ro0dSUtLq1aubN2/+5MmTTZs2LV68eOjQoQDOnDnTu3dva2vr8PBwZ2dn6LTiGaNh54zdv3+otZbQ69C1E4LOv5EcEga/mjh/DrXqAu+smzQYDHv27MnNzWVZ1t7evm/fvkWCcvPmzfPnz7dt25YLLktISNizZ4+NjQ0XKUoI2bNnT1JS0sSJE2NjY7no9goVKhw9evTatWu+vr6cv+9L8dZdTlGvkwiBlH5j1o8hAAX6dRJlYEm+AaBgLGlpRYaWgIKZkNIQwlAwEKJhMMFbqhDT9pKSpxPFNLL0rLWYupZjHOYuWROjvV3AJIZrfC0E22rKK5sJrrzQNSwvXVpF5mtKr3uuf6Zk1AwMhLxvipAWuMvELow+iWKfQeAEwFpqvrDeSH/3+jOuLKvi5Lum6RtTVGmaXNBCR5O3fSu+lp7nGP2hF5eGV+hcYkQVRUHPGGDUdvVs7m3+Sv5autT2SHv4IPXhy8LUipYeFABNbie3xuMr9yqpsgQCcb5BdTMt3MAaQdO1Hav1KT9rvG+vT43R+ocE69ip36UScdtWX2zxXeSTp5cvX+nSuaOLi/OXKhOAwNGZdnRmYmMoM3Pa0qZgzUJj4ktJg+a6m5d1V88RVSElN4FAIHB2VZ8KVG5ZRdECmJmT/Fza2lZUrea7BcbFxT169Kh+/foTJ06cPn26h4cHgICAACcnp7Jly+7atatLly4SiaRs2bJqtXrdunVXr15NTk6uUqWKQqGwt7fnwhooinJ1dbW1tSWE+Pr6Hj16VKPRlC9f/siRI5xgbdu2rWHDhnl5eTt27Jg5cyahqLi+39EmJq6ElHgJcs4EnQ59e71Wq6UL4eyMfoMAIK8A3brh+HHUqAXgjeVQjx8/HjJkSPEGzp49G0B+fv6AAQPi4uLCwsJOnToF4OrVqzNmzABgYmLSt2/fzMzMwYMHMwzTv3//gICA5cuXf/PNN7GxsZzzbvv2N4Mp/gIsCxC8Fb2k1BH8MYlKUWAIir+s6B1NIlKacpJRIMRYbJuWxd1CpryM9pJR0LJTq0jb2bx+Aa4W0BFiTlElLh5rbSe6lc08KWSCs5hhHuKjTRQVTQSZBmTo2LkRmntKFiIqNd9YyYTO0JGLaQYtiJ2UnuAlee/v2lEmlLgJ0exldAeEoiZFyQ0cfc/32Sl+M1xTxxr2R52GUNrc5e0ezZAKnX59HHjp6amhCocZNQaVNXMB8DD72YPMSP8yDZ0UNhQomqJB0SqDhstiZJkbaREwqC1MHKwkZgAoUKAEWkaPkhBQAigzars32950lpbVsYQ4yW3F9Od0nP8hwerauZuZuVV+TtKXKvDCpSuTxo/x9PL8soJFyeTSFu0Kwx/QBgMlkwuEQvXhXZozhwS2DkxmBtHrIKAFtg5Eo2IzM2lrW8rEBARsdqa0TReBs9u7BbZt2zYgIGDTpk2dO3euUaPGvHnz3NzcAgIC+vfvX7du3W7dugUHB9etWzczM9Pf3z89PT0gIGDMmDHXrl3jXFdCoRCAWCymaVqpVLq4uOTl5Q0aNIiiKBcXl1GjRgG4devW1atXDx8+/OzZszVr1owbN87UzHzAifPWFhYnuvV5p4UgLMwswRjQyR/nLr9KHjcaU6cDgFKNkWMAIDEFbdrg/EVUq/5GZyQuLg5A586dPT09V65ceefOHS5906ZN3KaHDx9yi4e4aUEAEydObN++vVqtZhimfPnyVlZW9+/fpyjq2LFjW7ZsMTMzO3fu3BeMWRcLABoJmte6oWNxLcMICfWqk0WVNNSl3vggF6KRjRCgfk83fFfu1eg+MEk/8EjeL23MerpJZt1UHk8wFAmWmqDOyXwiwcM25sKSdkEBk8tJhoVoKltS17OM9ayFOVKMD1OHxeugJzARQE5XsxDOjtIqDfCzFp5JN4xzFrvJP9QFocRDDNReTf52U8lAoej1ARS/E1y+6uG+6BdX3Mo2a+369nH2sfTY33Jxr6CJO++sCnh6vKFTDYZlbifdQ/rjgc1m72z+M01ReoMajH7MzaX2Mms9a0hSpjxKCgWrn1pjkIPcGkCBvgAss+3pydtpEUqDGqD0jN5g0PzSYFJjxxpKowaFKQwx2MksPtCcj+FLCpbRyAiFJaim0Wh8Fh3xBXcEwNTEhBZKZNKSnSB/BVnH3pqje5isdIFDGQgEgjLu0OmYnCza1BRiWxgNpCAPIrHAzZPrqJC8bEosUfQfVWJpaWlpXl5eJ06cePjwYatWrcqWLdu0adPc3NygoKDr168DOHXqVP369XNyclxdXYcMGVKtWrWuXbvu27ePoihTU9Pg4OCkpKTs7Ozo6Ohu3bpxkVampqbbt2/v1q1bx44dAezevVsoFG7btk2lUmVlZZ05c6Zv376Fz54KLCzfvS8JCztbpCWjc2fcCX6VOHkCVqwGdIABI0aDEIwaCwCZOWjUGFeDYO+I9MJXxlzwxIsXL1JSUgD89NNPAHJycpYvX16xYkWZTBYSEvLixQtra+uYmBgA5cuXj46OXrx4MeehK1eunEwmi4mJoWl61apVMpns2rVrfn6f5sj4MG5yQS0H4f1nulWxuiEeklwtOyVMk1xohJBmGbCAXk+Mb/aqjATQEJ2RAGAMBHqSrSfVzAU1PcRBDzWLLYX9vCQ5Wnb0LRUUdDM7obcpXd9T8ttdVR1zQSdXsZ4h3z9QP47WjmluKgQIoNURg5a8FRdnKqBqW9KBifpGtqKVz7Sjy0rWVZVllZNks0RBUV5mtIWUnv5I46UQhOUa3WR0a/s/uT1pcXNK1jc/a19+an8HhyCpuORp4v0xv0+7vgwKq5X1xsmFJazR6ere5GaPfctDtp9LuX8j7joogZ2Z87dV+42qwj3wqHKWHnkGTUx+QlhWNAVKAFLV2W+Mb59hPq88Yg5yOxu7ilqD7mziHSEtAKA16hi9MlOTB8BGYm5p7f3+kIhP4PMF69f1W44dPVRYqDQ3N+vWo9eYEUMOHTp87fq1VatXyySvluBevHL9ty1b1q//NeLRY6OR5cJt9u4/tGPHtvz8AoVC3r5Dx0kTxgloCsD+wKMBO7dlZ+XK5bKWrdrOnD6FK+Tu/dBlS39JSEgUCAQ1/WrMnDPX3uZVy7mhit7ALFi46PLlSzqdzt7OfvjwEZ06+nMGu/Ye2L0rIC83T6GQd+jY8ftJE/60XQJ7R9OJs/KmDCWF+ZSZOYwGCIW0uSUIAWMERVFmFq8+CwREozEmxplNmi3yLfmdDeHh4YMGDfLz87OysqpYsWK5cuUWLlxYtmzZefPmURR1+PDhzZs3t2zZUiwWP3/+/Mcff/Tz87t+/fqLFy9EItHYsWPPnz/fpEkTrVbr7e3dv3//TZs2GQyGtWvXenl5TZo0qWfPnuXKlduxY8d3333Xrl07vV6flpa2bNmyNm3amFtaNWjYsIQKUTAYIZfD1upVwqRxWLEaAKABKMCAkWMgFGDYKABQKqHWQyB8fX9HREQASE9PZxgGwJMnT5o0abJ8+fKsrKxffvklPT09JCTk4cOHtWrVio2NBbB79+6hQ4euWrWKEALAy8srPT09PT2dE197e/tKlSr96Un5JIQUVtWQd8wxTr5SuCBCk2PAAA/xlKry5XdVBs4NzhA188ZQWUYDUtpESAPQsQRGKA0EMhxsbDKUpqYHq6ZHaqAnzmIqsLNFLWshgD2NTXozZPi1wpHmQtZIoGbHtzRd+cciZ4WIlkpYyTsV+9FbWt1cGJJvdJXT4x+oJ5SX/lxJej2LqWFBP1eyzS8W2koobxPBt26SfmU+6tdW5BbradWjxKxHKeq2LvbLXSza09TrmzpdnbnzyZFZdzdAmfbTNz939Wr2vnLq2PocarMsvjAtUZkmooVe5mVspebcJmeF7dn2G1jCcqsCWbACSuAgty6+SHB5vYlza40UU0Lyx4VCQBgQO6klgGE+nTu6N7UU/6Xlma/4pDlFDpZlJ02eAqBrj94//zyvQ+fuAHbt3ns7+B6AFatez+6X96liYmplZBhLK3sP7yqEkKXLVwJo277znLk/9+nbH8DYcRMIIdsDdgF0t+69Z82a3bvfAAAdO3cnhNy9HwLAp1LlmbPnjPluPAQi36q1WZbds+8gLZTcuHmbENKhcw8AAwcNmzl7TrMWLQFs276HELJm7XqA7tmn36zZc7r36gdg4ODhDFPyJPFbKPduSalklernlNGudkaHehntamf413r11652Roe6GR3qptUvm1xWnr/gB8K+t0y9Xh8ZGblo0aIff/wxKipKpVJt3bo1IiKC25qdnb1169b79+8/ePDg8ePHXGJmZub58+dTU1MJIc+fP9+2bdv+/fszMzMJIU+fPr1x4wZ3CoKCgkJDQx89erRhw4b8/Hwub0hIyMaNG+Pj40NCQt6KluDIySNTJ3dWFoIQNG2Mvr3+CF/QgzAgDIjhVcr6tbCxwPGjIATH9mHf/vNcCZxD/eLFi4cPHwbQtm1blUrFrQpycXHhFj/+8MMPhJAqVaoA4LqTRdfbxo0bz58/D6Bu3bo+Pj4A+vTp8zFn5FOJ1TArojU/hagOJeoJISojG5RhyNOzhJCbOcY7uW+ESqiM7M08Y5KWIYREFDBnMw3aYtuvZht/e6Hbl6jLMr59os9mGJZHqTfHakML3yjwqZJ5WGD8wLV2OcMQmKDbGa+bE6WZ91Q794lmS5xuT4LuUJI+Vsl8UksNxqwnL7sevItfryAgpMOZ6OVBz3ccitq+/N7i+gdaYYmZbL3v/PtbPqnMfy2fI1hqtbpqtRo/z5tflNLv2wHW9i6EkFZt29s5ltHp9ISQew9CABw+cowQ4uZRsWXbLoSQ2rXrDhs2vCjj5ClTJDJFdp6yXbsOVla2RelbtvxmaWWr0eoWLP6latVqRenXbgYDCHnw4MjxU7RQEhoWfv3GTQA3bt0psunfv7+FlYNKo2/cqJF3hcpF6b/+utbC0ibm2YuPbebx/RnNK6dUtEqr55XRunpG+7oZ7etmdKib0dYvrZF3SmWbtLqehVtWftqx+9rk5pGJ37WOCgcxoiAN+gIYNFDnQp1X7C8H6gIQPZ6FgRhh1GDdKuzYfpIQ8vLlSy5slVv2DCAgIGDevHkAmjZtOnr0aO71ONWrV3/58qWZmRkATnk7dOjACVZQUBA3ity9e3fRau2lS5d+7QPzdQhKM+x8qSeEvFSxvz7/S9F2z9M3HwprOuO8xaBjZu0P2NUNcPLc4lR+e7UB58ZdSbzz5/lLCZ8zJJTJZBcvXdoRsGfo0BEaBrY2NhGRsQpTKwDz5/1cp5bfgcDDA77ts2jhEgdH525dOwOgKNpg0AO4cvXqrj37hw0bo9brbWxs7t4LFYsVNI1x4yecOXOqUZNmlarUsLO1ae/fJikpUSQUTBw/rkrVaiPGTCzIL7Cyts7IzAIt0+mNIIRbsxYXFy+VmpwKunD+4lWD0SiTyeITUvJy0kRC4biJk3t069Lim1beFava21l369wxfuDgj4/pkXXqLanbWHVgm/bqWTY9DTotAShCIBbTFtbSb9or+gwTlvP584L+TZiaQCL3WrPazd7eXKogjBHKQrz7/g/CQiKFhQVyD1IghvBHhu8mWwBIT09zcnLiZgAsLS1nz57dvn37hg0b1qxZ88iRI1ZWVgD8/f1TUlLS09MdHBxq1arFvZFixYoV8fHxhYWFZcuWPXz4sJOTU4UKFWrWrDlp0qR9+/Zt3bq1X79+Tk7/rZ9vYwgaWQtMhBQAVzk1ykOiYfDZrwj1shvhaTfcL/f2i7yoHI1GywoUEpvKNtW8Lb2/ZKW/Np/zu4QqjW7UyJHHjp/wreLn5OxkZEnwrWAbW5uwB9fFIlE1vzo2VhbHjp0wM7Nau37Nd6OHA/DwqlyufLnzQcfGfDd+/4EDZctVcnZxIQShIQ806sLwhw+cHR3u3n8wb/6iyOgXBoNBW5jZv/+3q1as2L5j94yZ08ysHCr5+NACwcvE5NDgO/fv3XyZmNSzZ8/wh6EPHoQMHTq8Uo06hGEYlqVAOTjY1Ktda+a07yUS6fXrNxcs/iUmNslo1CrzssaOGb1wwbxPbS9bkGd8FmWMjYZWDZFE4Ooh8q5E2/7Nyxr/NvLzlcmpapqWgAs+KumX0yiAELAENA2GYeUyxs3VkqIEBoM+P7+ApmmKosRiMTcATEhIsLa2LnoTjlKp1Gg0FhYWeXl5UqnU1NT0j/3ma7Vae3v7/Px8tVrt4ODALcRNTU1lWdbCwqKoBB6e9/IZvbJTp88AuHr9dlHKt/2H2Dl5qrU6QsiZoN/lJtbNWrQuX6laofLV2gs3j4pdevbnlqqu3fB6OD3lh2nmljaRUTGjRo9+8CC0KH3BoiUAIqNi/Pxqt2jVpij9yvVbAO7cCT5y7CQtlIRHPN534KBIJE5OzSiyiXzydO36rc9i4/r2G/DsWWxR+tz5SwHcuHHzM5rMw8Pzb+BzhoRlXFwAbN+xXS6XCGjq+Klze3bvdHH3IoQA8G/bplYtvyuXzi1ZvsZE8SrsIDc3JzszUyQS0SJpwO69tWvWkMukp34/v27dWsIKzc1Mo55E1axZY8++gzWq+WZm5dy8dUdhamNhaVnG1fX3c+eDgs56eXncufdg8bJfAdC0UKfTsUZdXn5+29atTMws2rb1X7FiqbOj46PIJ7169CrvU6lvn+6hYaHlynkdPHTUt1KF9MysWzevyhXmbu7uX0LneXh4vgafp3PzFy03MbOwsrF3cnH9dvDw3n0HVKleq0D5ah3s4aPHynlXSE1NK7KvWbtep87dCCEbN28zt7CxtLa3d3Tp2qPP4CEjynpXzM7JVWsNtes1MLe0sXd0tbKxd3Iuc/joCUJISFi4q7uXqbmVrb1TvQZNxk/+wc3d6979BydOnnZ0crly7QYh5OKVm85l3C1t7OwdXc2tbH2r1HwW+4IQ8vxFfEXfGuZWtvaOrpY2do7OLkeOn/lr+s7Dw/M1+RwfFseLuISk5GSpVFq7ZnUAiUkpLi6OXCixkWFUaq256WuXRGpahkAgsLO1BpCUnBb74oVAKGhYrw6A+IREFydHLqQ7LPyRUqkSCAQVfcpbmJtxeQuV6kePI/V6fbWqVSzMTV/EJzg52AFIy8hysLOVSiUAdAZjWFi4wWBQKOQ1qr3xloyQsAi1RiMQ0L6VKpqa8F4SHp5SzOcLFg8PD88/zNf+qXoeHh6ej4YXLB4enlIDL1g8PDylBl6weHh4Sg28YPHw8JQaeMHi4eEpNfCCxcPDU2rgBYuHh6fUwAsWDw9PqYEXLB4enlIDL1g8PDylBl6weHh4Sg28YPHw8JQaeMHi4eEpNfCCxcPDU2rgBYuHh6fUwAsWDw9PqYEXLB4enlIDL1g8PDylBl6weHh4Sg28YPHw8JQaPueHVHl4/l/J0+JkNLRGSETo6A1L6deuEM+b8ILFw/Oa5EKMOglNIYTmCBvBC9a/Dl6weHheQ9OQmUADWCkg4v0l/z74c8LD8xoKENEADSEN6mtXhuddeMHi4eEpNfCCxcPDU2rgBYuHh6fUwAsWDw9PqeEvzRLGqBGSCUsxGtjD9P9U+ohaS8n5yW0enn8Fny9YPz/GssdQGQCgijk21EMD22KbU9MQEQ65ArVrQSL5q9X8GhCVNn/+As3FC7SLs/nYcdKWzUo0Y5JT2fRMSiEHIX/kJESrE3i60eZmr81eJrE5uZRc9tqMJUSrFXi6wWBkEpIphey9VaEoolTRDnYCZ8cStmq0TFYOKVSCAijqlb1WSwlFggplKYHgcxrPw/Ov5DMFa2kU5l4HTAEJAERkoNl53PdHVUsAQHAwflmGQiUYBlV88dOPcHT4YlX+RyCF6oz27ZXXrwhBMSH3NCdO2B8IlPXq9q5lwYqVeRs3ieQyEBCWASiKoow6neX06eYzf3plxJLMvt/qwh4IZHIQgPvHElantQs8xCSnZE2cIJR/SLAMKpX5yBFWa1YVpWlv3taeCjKERzLJCUxuNlEWEyxQjE4ncHBwvH5F4Oz05Y5KKeZpNsLTkaqChIa7GfycYSf/hOwESMqHRIR8LfQsKlr/caT/IDY2Njw8PCMjQyAQODs7+/n52dvb/2mxUVFRERER2dnZMpnMxcWlVq1aFhYWn9aw/xifI1iZeqyJBBSACWAEKMAShiysj8GWOkBeHjZvgUoN1zIwGPDgAfbuw/eT3j7Df6DT6UaMGJGenr5jxw5Hx5J6EO+wcePGCxcuzJw5s0aNGp9R/48hd9L3yutXxGIrmhIJAaMuPfPbPg4+YeIqld6yJCoVq1WyWhVAKIgICIGRBbQnzphP/wE0DcDw+Inu9i3AyGrUBITrBREQFqBAEdbI6lSsToVXoT+kWPFcCs2CIQWFXBKTlpE7fpLy2BEYdZwF9dryVS4WLJUtgLF4Uf9RXuRj5kWcjoNOAz0FADIKlqYYXhXTG0L8ER1QHYOeh3A3DWYCxOZjnT8q2bzemp6ePm3atIsXL+bm5lIUBYCmaTs7u+7du8+aNUsmK/k5FBkZ+fPPP9++fTs3N1coFLIsKxQKnZycBg8ePGXKlC/R7v9PPkewoguRogekgBEAQAACiPCIu6FinyM7B65lQFhIpXB0RHQ0NBrIS36i3b59e9euXQD2798/efLkP917cHDwmDFjADx//jw8PJyiKI1Gk5mZKZPJrKysBF9iBKQJOluwbZOYMqEoISFGAAKxrUGfmTN2jP2VS5TwjYNGyWQCgBbbEr1e6OLAqtSkUCU05hiiIo3P44TeXgB09+4CRgFlCSFNiYXEwIIQYtACSohFf2gNV6yAFpuBogAWoIhOTaAHBBQYwgKAISo63d/fEP9CCCklsgFFiMFAiAFgilWKBrQUJfgrsY8sw2o0WqlM8kUO6VsY9AZQlEhUwuVn0BtpAS0QfBmf6OV49DyAbDUgBghgAACNEJoC/HweF2Jxsg+s39O1ZQgA5OvR8SCuPwMESC/E9HYYUf21ze3bt/v165eUlCSVSo1Go06no2laIpGkpaUtXrz48uXL+/fv9/DweKvkkydPDhw4UKVSSSQSlmULCwu5XC9fvpw6deqVK1f2799vZmYGnnf4nMvCQQopDTDFclMAAwfOVWVnD1qAggKIJaBp5OXBwuIDbqyjR49yHw4cOMAwzPvMirC0tOQ629WrV+ceaMeOHatTp06bNm2ysrI+oznvUrDkFwCUWAHyR30oIqTkmpvXdecvvScTAQwQiSgzBTEaKNrEqMrV3Q/jtunvPCAAAUsYtbhRA9rejBgK/8hHKImYFoppiZw2saAV5gALYgRLQFhaLqdNzWmJjBaKBS6OALL69dXHvxCJ7WipBTFojPpshhSAZmmpgpYqaImClihoqZwWSWhT078iWE+fxvl/M+JhaNTnF/F+Fv28efH8LSVumvTdwr0BJ7/IXoKT0Xov8owQKGApw7fVsLYDFrZGq3KgaZhY4PYLdAuEni0hL0NQxhwAOu7D9WdQmAAE6/pgYTMI/jiqjx8/7ty5c1pampWVlYWFRd++fdetW7ds2bJ27dpx3aW7d+/26NGjoKCgeMmXL1/u3r07TdMmJibOzs5Dhw7dtGnTggULmjdvTtO0q6trUFDQsGHDPqaBypISCZDHsHq2pFb9/RAgu6S7ONP4OlEH5AN6QAcoCdGTT6jq5/SwvBTo4oL9EYANQAMUoAVoDOYeJGXKoEsnbN2GwgLo9ZAp0LsX3vOUzs3NPXbsGPc5NDQ0IiKievXqDMN84Klevnz5yMjIyMjIxo0bcykajSYtLS0vL6/E8b/RaFQqlR/vGtBevqa7cZ2GFMT4OpUQSmRK6dWFmzdJ/VuXkI2iWGiE7k4CT4/Cbb8JRTZGXaHu+lVFv+4wMro7dygAhIVcLKrkY3jxhMBIQQSAzcmRd+3k6FWWkkgoM4Ux6lnWwP5Q60BJCVGaz1wo79qRKNWsRiupWU21d782LFREm0JAMbpCArVpvwGSxk1FHq6UuTlXT642RKenxCLawe4jW11Cg2jcvxuRn1f456afCCGkR582NF3yw3LYqJ4Wll+gc6ExYvJFGHWQKmAtw4EuaFjm1abpDbDuAaZegIUVrkVjxR1Ma/B2dmsZcjUYcgrXn0FuDrUamzpgpN9rA6PROG3atMzMTEdHR5FItHv37qILctKkSfv27Rs3bpybm1tISMgvv/yycOFCbpNKpfrhhx8oiqIoysnJaf/+/ZUrVy4qc/ny5QsWLHBzczt06NDmzZtHjhz5gQbuSk75+V54ZRvLDXVrBiWnvCgoXFilEg0MexB+Li3jbJN6lU1N/uIx/FTOZmQuehh5L7+wnYPtLzWrlZVJATxSqibdDbmTV9DVxXlp9UqOYvGi8MgtUc8tTBUSkZAFVdnacp9flY/cxecIFgWsq4t4Je4kAgKAADQWNkBHlz8sBg6AcwXcCoVChi4t4fVev+/p06eTk5O588cwzP79+6tXr65UKocMGZKXlzd16tQ2bdpwlnfv3p05c6a5ufmWLVv27t0bFRUlFostLS3Hjx//4sULAAaDoVmzZlKptGbNmkuXLgWQmpo6Z86cO3fuKJXK8uXLT506tUWLFn/aOtXO3QxYkUjxTrOJABJN0Fl92CNxdd93jglFgYVCIm3SVLltJxgDDehu3wZgjE8wxEZTEBJoRE7lpY3rqw7sKXJUEY2WtrSUNG34qhxaCICApQghYEWeHqJKFYv2oty8mQIosYzoVGBV1ivXmUwa+6ctKo6RKdAb8+QS1/cZbN5wMOLhUzs7qwqVvLzLe4olYgBGI7N8yfbElylW1uajx/V1cn6lg3GxiRvX71cWqn0qefX9toO1jUV+nnL54t+ysnL9alceMLhzakrGiSOXho/uJZNLAITcjwx9EDlsVI/srByNTl+hoieANSt2PY2MdfV0Gj6qp42NZeyLBC9PV3g4A9i3+/TtGyEisahXX/+69asBCDp9rbCwIDM9PzU1c+To3q7u73V6XkvAnReQmcBgxO5Or9WK47uaeJ6HNbdAm2LrQ4ysAas/BoaEQCwAy6LVfkRnw8wSSh0CuqN/5TdKePDgwZUrVxwdHTUazc6dO4vUiqNv374pKSmzZs2ysrI6ePDglClTLC0tAQQFBYWEhDg6OtI0HRgY6OPjUzzXlClTEhMTf/vtN1NT0/379w8dOlQoLPkOPZ+ROfDsVXdb67PpmS7HglCo9HC0W1SlUobBsD0yuoyFmcebczg5OTlqtdrF5dUtyvUJjEZjVlaWg8MbE2JarVar1b77gE9MTDQ3Ny8+UDUajQkJCTY2NkWJ0x4/jc7N6+PhtvNZbILOcP+bRvkM0/j81UKtro2r856IyBdq9a1mDZzlMke5zMFE/kKnj36ZWPaThJV8LlpCNj8jfW6T0ffIxbQStuYYXuaR1A8X4u/vD2DIkCFz5swB4OXlpdFoGIapV68eAH9//yLLgQMHAmjatKnBYHBzcwPw66+/3r9//90W1apVixDy6NGjsmXLFk+nKGrTpk0frg9boEzyKh8PJErtEsXWb/xJbBIF1nFA4Zq1xbPkTJgcByRJ7F8C6Q0aGx5FJ7t6vYQwAYoEgYxVazQng+KABIFFPJDRvpvh6fNEC5uXECTAJB5Qbt9dvDTd3QcJEpOXECXANB5Qbt1ZtIlJz0p0LPMSdJLEPh5Iq9ngw20pEa0+41aUf0bepRK3Dh8009O5xXcjfx7c7ydr09qONvVjnsbpdPrmDQfUqdp94pgFTet+6+3a+uWLZELIo4hoT9fmHVqPHDt8rk+5NgHbj+Xk5PfqNrFb+++GD5xZ3qtNaEikUqkWosKRw2e58hvX7tury0RCSCf/4Z3aDyeETJ+6okHN3uNHza/u22n92r2EEE/XprNnrCGEfD9xibtj8zHD5vTpNsnWpM6pY5cJIb27TQJse3Wa0Lr50LLuLSMfx7yvpbOuE8whmE9qbSvZIDSVmC0jwsVEuIicff4qMSqL2K0iil+IzUoiXkzMlhGzZeTY0xKyb9y4UaFQmJubN2hQ8ol4+fJl2bJlbW1traysrly5wiX+8MMPEonE3Ny8X79+JeYKDg62tbW1tbX18PB4/Pjx+1r3vFA58/HTdIaJUal9zl9td+teolZHCFn5PB6/7V349HmRpcFgWLRoEXcLNG7c+PHjxwzD9OrVq1OnTlznbtiwYYWFhYSQ/Pz8VatWccLarFmzR48ecSWEhYVxcmxmZrZw4cKsrCyunt7e3gAcHR1v3LjBWYbnF2QYjISQ/vfCsH0fIeRAciq273uQV7gnJQ27ArHn8JWsHEKIkTsaUTEIOHgyJf19zXyXzxesD3Avdc3WiKq/Rnj8Gu62J7LZi9wLJZrFxsaKxWIAV69ezcjI4I7p0aNHCSEnTpwAIJfLY2JiCCGZmZkmJiYATp06RQipWrUqgGXLlqnV6qtXr44bNw6Ak5PT77//fubMmZCQkIyMDO5oOjs779ixIzAwkOtbSSSSBw8efKDmugfhCUJpAkSJEtu3BUtsnSi2jQNyJk0pnqW4YKVWq8nkFGR07RIHJIns4gH1yTN58+bHAUlihzggf9ESQ3TsS4niJUQlC9a9kARpyYJlTExNtLJ/CUGSxD4OyB793WecGpY1XHhY+USwZb767Zthx29HbRS1kxJfPXym/7BCSJWPi01at2q3h1MLg5G7xkjzhgM7+o9mWdK62eC+PSdxiXl5hfn5hQ9Do0Tw2bvrFCHEaGQ0Gi0hZPDAn9q1HkEIiYp87mbX9P69R4SQPt0mDx0wnRDi49Vm6KAZXCEqlcZoZGr5dtu2+dD9e4/M5TUe3HtVyQVzN7o7NlOrNAP6/NCsXn8usWO7US2aDHxfS/seeyVYk0u++gghpN5Ogp8JfibbH75K4QRL/guxX02sVxCL5USxmOwtSTfGjx+vUCgkEsmwYcNKLNxgMLRs2dLS0tLDw6Nhw4bdu3fv1q1btWrVPD09xWLxvHnzSsyVkZFRo0YNCwsLrpP13qq/hzqXrmPf0Si1uihl48aNAEaOHLlu3Tq5XN6lSxeGYTipat26ddeuXQH07t2bEBIfHw+gS5cuq1atAuDj40MISUxMtLKy4noVXK7Q0NC0tDQLC4tq1aqtW7euQoUKVlZWiYmJ3O6eq9Qb4xLcTpxteyOYEDIxPFJ26hxDSL0rN52DLuHImeUxsZyllhDrY0H2p85rWfbjG/jl49ODXgwPip2Qp4kleh3R6xLyrx542iYya++7lkeOHNHr9e7u7k2aNLG1tW3dujWAgwcPAmjevLmjo6NarT516hSAs2fPKpVKZ2fn5s2bA+DcH1qtViaTNWnSpH79+gAoimrevLm/v3+NGjWuXr0aExOjUChOnjw5aNCgHj16nDlzplGjRjqdbsuWkn29HExiAmvUgpK9GVvwGgpg4hPel53odLSlqbR+EwCEIhTEym0BmlPnaQgJY6AAcb26ICxYFp/hD6coUK/PF5v6OTMMLDHKpZ56JvfO004F6sjim44cPNeiZX1nl1fRQ6O/6+vl4p6dnXv+7K1v+3cQ/uFVnDpjaHTUi9SU9LzswhEjenOJ5uYmZmYmvlW916+fM3/Oer/KXfftOiWVSgD8+OOIZ0/ijQbj9av3Xd2dataqDEAooDVqLYC9gSsePnhSxbf9jJ9WyeVSiqIEQoGFpem1y/dqVff1q/UqiGTk2F4yufTZs5cmCnm9htW4xN49/bPT84zGYq7GN48Wd4w/ENlB/xFG8pbXl6JAAdkqMAQ0jX7HcC3x7bxFg7X3OeMoiqJpmqIouVx+//79w4cPHzlyJDk52cTEhBBCvSfKh6ZprkBCCPuJjvOnStW9tMyGTg4VisVSpKSkALC0tBw2bNijR49+++03hmEoipJKpceOHTty5EidOnUOHDiQlJTk5uYWFRW1atWqCRMmVKlSJSoqKiMj48CBAzk5OatXr962bdutW7eCgoKqVau2fv36vLy8/v37jxgxokOHDjk5OYGBgQB0wLC7IaODLr7MzfvOpzyAQoZxlsnOZWSF5SuHebmBosR/zP/+npqenZ3b381F8p5DUfLx+aQj8hb5aeReoOHJZYYxvEp5mLk9JO03S6mTmcRVIjCTiCyt5RVFtOxywrQcbUzxvAaD4cCBAwBsbW2PHj0aGBjIDZvPnz+flZVlYmLSpUsXAKdPnwZw7tw5AF26dJHL5UUziUUXSn5+PgCj0VjUTXv27BmAunXrFgVqSSQSrpOVkPBeuQFA1BoAFP0elz9FALDJ6e/NbzQCkDRoQAFEr6REJtqzlw0hj2iRBWEKBKa2krr1PrD3D0ObmQpsrQgYgNAQaa9eNkR++hQeBRBGIXHWG3PvPutVoH5StMXbxyPyybOir1FPYrPyc+Vymaunc/ij6KL0sLtPzExNTEzkLIWH4U/fqCFNDx/TK+Tx0YGDO0+fumL75sMAyvt4lPdx37b5yJ3b4X2+bVdUC8bIAqheo+KDR0dnzfzuzOmrI4bMomlKQNNarcHN3TkuIdnwhxg9i44vzFPZ2VkbjUa1SsslqjU6mVzyPkEqZwUAILiTVLLB0yw8ywYtglgMxzc9ljoGUiG2tIerOQwMKAoDjyDlzekHrgsvEoliYt64sItIS0tLTEyUSqVqtdrR0bFChQoVKlSQSCQ6nU4qlcbGxpaY68WLF0lJSUKh0Nra+i0P159yMDGFKNU93VyKJ44aNap9+/ZLliyRSqULFizgZFSn0zk4OHAxYq1atQKgUqk0Gs2WLVvc3d1pmo6IiJDJZDk5OcHBwQD69u0LwMzMrG3bthRFPX/+HMD06dPFYvGyZcsAcDOhEmBm5QqrWzfzcbCbdj9MR4iDVFIAsiY6tpm5aa8yTtAbikR4z8skUHQb508LKf98wcpNIcd/1l3bagj6RXd9hx4EgD4yc69EIJMIzFliJGAJYVhiMBW7FOqTn2QfLJ79/v37oaGh3Idu3br16tWL61vl5uYePnwYwLfffgvg9u3bR44cuX79OgBOwgh5+wotesZaW1tzH1xdXQE8efIkLy+vyCwyMhLAh+OPaQsLAIQt+aHNPbIp03f88cVhici3osDWiYWWEgig11E0BaGQgUHsV4WSiolO96Hs74cylUubt2QBQlhabMnkZWS08VcfPfEqXuhjITpjllqfLBSY5Ksirz6qm553jtswc84oSoiO7UZdvXJ//54z/Xp9n13wQigQzJgz6uatkInfLbx1I3TR/M3Llv/208wRZuamo8f1mTlz1erlAVcv3x0xeNbRQ+dSUzKH9p8edOpqgyY1zMxN0jOyuZKHj+41atz34eFPh4/qyaVk5GQbiJ6wZOqkpRvW7qtWrYKPt1dedgGApLT0Z8/i23dqamtv1bzegMsX7uzffbpvj+/79G/v4GgTEx2fk5PHFZKbV5CSkvm+xtdxBlhIxQhLR3BKCQa7HiOjABTgYIqaxXz3FAWjEQyL4dWxtiW0GphK8TIH3Q6h+KVXs2ZNAAqFIiIi4tKlEoJdDh8+HB8fbzAYCCH79+8/d+7c2bNnZ86cGRcXZ2JicunSpaioEp43hw8fLigo0Ov1ZcqUqVLlY+fOALBAQEISTOTt7IovkYOJicnevXtDQ0NnzJixY8eOXr16cT713NxcziAiIgKAXC5fuHDhqlWr1qxZExoa2rRpU51OJxAIOD/948ePOWOdTgeAm8Rfs2ZNTEzM06dPb9++zYVGAmhhazPBy31YWY+I5JRsnc5LIc9IyzqXnDqzio85TUOjkYqEANJ0ulNJKY4ONo2tLD++jfgrghUfwmTHs44VaBNr6vlNhikEQYHakCGgpW91wwkIRaFQ/8ZVw0Uz2NjYfP/995MnT540adJPP/1UoUIF/DEqrFevXuXKlXU63eTJkxMSEry9vWvXrl1iTezs7ABkZmbu2bMnJiYmNze3SZMmlpaWqampgwYNevjwYVRU1IwZMzgd7Nev3wcaJfTypGWmhGjeM2SjCUB7OH+gBKJSUwq51K8WAQFLKJEYtABGAwEk9RoAINrPFCwApmNGCWgJo8+hKFogtjUmxWd165paxS/Tv2N2vwHZ/QZk9+mf3ad/dr8BGZ17Zg8ewebkvtsEmdhFIfWUiV1szRuJhGZPEmfnqx8BsLQyP3V6kwCC6T8u3xtwYvCQbr26fGswGh3sbU6f2RT56PnUKUvPBd3YtHVe1x6tAAwe2nXVqumH9v8+/ceVGWnZHp4ullZmZuYmK37ZMXbkvM7dWv44Yzi3yw6dm7dr7T9ocBfhH5GizZrXa9ykNkVRLi72+3edHjJgukQq+m33IgCdOjWvWNFLKpWcOrPRq2yZWTPWbFi7b+iIHktXTQXgV8u3StUKXCGeHi7NmtV639iqqStquEKrA0sw8gyevXkkDkVh9V2Ym4BRobcP7N56BlEwEjzLQTN3zG2JgjzYWCM4Dt+df21SvXr1Bg0aZGZmCoXCyZMnP3nypHgBFy9eXLJkibW1dWZmZocOHerWrevq6urm5jZ48OCyZcsWFBTk5+ePGTMmOTm5eK59+/Zt3brV1ta2oKCgS5cunxSyezs3Py41vam7i6dceuLYsQEDBiQmJgLo0aNHvXr1XFxcBgwYYGZmlpiYaDAYTE1N8/Pz165de/ny5RMnTri7u5uZmV26dEkikXTv3t3e3j46OpobkA4YMADA5MmTb9++vWDBgqpVq6ampg4ePBjAzZs3ra2tc3Jydu3aJRUIVMA3127PfhIdXFB4+EUCpFKFUFjfyhJ6PYA0gtG3H0AsbGFnDSAwKVWfndvb3UX08S3k+FSvXhFxD4xrOqvX9VAvb6M68L2W0RKWFG6L8Ft212xzmM/GMO+iv01h5RfdoS7Gf1+UNy0tzdTUlDsQxcvcsWMHV6vr168TQhYvXlxUz6lTp3I2er3e09MTwMyZM7mUlJQUcy4KCQAwevRoQsjJkycl70Sr/vjjjx9uFKs3pNZt8AIowekusU2kzeIA1aFjxbO8crpLHV4CKeV8mKxcQkj+wl/igESBVaLYJlFsmwBpPKA5fZ4Qort976VI9hLiV2719zrdzeLfdLpzFG7Y+gKIBxKF1kkS+0SYxgPxQNybf8+BOLmJMS7h3SbqDFkafZpWn67VZ+gM2YXqaI0uubhFfl4hwzDcZ4Z57RDNzS0o8aDl5RYW/6rV6goLVR86yu+Qk5P/vk2FBUq93vBJpRVx7SUR/kwEi4hoIbFcQebfIAERZEc4GXiSYAExWUowm/hsJvna11misoj9GoKFxPlX8jTrVWLPIwQzie0qgplkbbE5m4iICEtLSxMTE2tra2dn53nz5h04cGDfvn3jx4+3tLTkYhd8fHy4abUizp8/LxAIbG1tLS0ty5Urt2LFigMHDuzevXvgwIFcKCmAli1bqos5zj+G/vceYt32PYnJhJDuPXoAOHHiBCFk+vTpRde/XC7n7qw6deqIRK+0wsnJ6d69e4SQbdu2cSlCoZDTypCQEELI3Llzi0rw8PCIi4sjhMyYMaMo0dvbOzUhIZcQ37OXsXU3dgViZ2DRTOW48EjsPYIdB7DzwMrYl4QQA8t6nLuCHQfC8t573t/H57+twd1P0HS4KPKiUWFJ1+ktoiUATMqYNkwuDDEVv+5hU5TAyGpoiNzNX8dA3bp1SywWOzs7v9Xf6dKly7p16xISEq5du9aoUaPevXvv3LmzoKBALpf36dOHsxEIBD4+Plqttih+xNHR8fjx47Nnz378+LFGo+F8Wx06dLhx48bSpUuvXLmi0+l8fX2HDRs2ZMiQDzeKEgnNpnyv6X6L1eULpBaELYp0p0GgZwvkdRrKu3QsIadRTwDyR8yuuHZNGhRh9BQEoCgWWqGlvbg618MnIARgX60TeXuE+3orKWErTEYPo01Ns8eN0edl00bQkAiEFiDUmz1CmjJmCyysIHj3/FJioXXx72Kh1VsWZuav42Jo+nW5FhamJTQcMLd4I45GIhFLJOISLd+H5fsjRU0+PAD/II1dsacn+h2GQY9cBrPO/xE2SAAhlDmo4o6TvWBW7LnGECg1gAZ5IrB/HPst7fAwBTHpgBjjDsNJhq4VAcDX1/fAgQPffvttZmamqanp7NmzuVlvg8Egl8tzc3MrVap08ODBIk8FR8uWLbds2TJ27Fi9Xq/X67///nuJRMIwDMuyUqk0OTm5efPmBw8efN8ixBIhQEdH24ZtmnV2dAAwY/r0xo0aNWjQAMDChQu7dOkSHBxMUVSTJk0qV66s1WoLCgrc3d23bNny4sWL5s2bu7u7AxgyZIizs3NoaGidOnUsLS0TEhK4wKA5c+Y0bNjw8ePHDg4Obdu25aKuFixY8M033zx48MDe3r579+5cbe+0bnoqKTVNpalsY/WN9aux3q9VKn7jYBuVleNnb8clEmClr4+4RpVq5p8cIUyRd26JT4JlUNxDnaeL2/ekRa42zlrqDYqiQBmIOlud4OcwuL3X9tdmeXkGg0Emk3HBCsXR6/UFBQUURXGnWaPRaLVakUhU3FKj0XDZi54SHMnJyVqt1sXFpXjfKicnR6PRcA+ujyRv/Pc5a1cKQAtgyq1eZlkNA63I1d3+zBlR5YrFjbMHDsndtUMMGAGRibXzixja1orkFyS7eOiVOdyxMQKmjVvbXTsLQHftZkrTRni1nAn2azeZfPc6oFl3Mzi1UT3yx1a71etMJ5QQGmp4+kz123b1lYvG0HAWhncHRQwgoEUusbEC9zLvZv9PcS0Bi27gWgJ0em6BJkCjjBm6VcL0hrB9UxaistBiF3KUMDXFzQEo/4fU3E9Bl/3IYcCoYG2G60NQ9g/fy8OHDxcvXnzlypWCggJuRkggEDg6Onbr1m3KlClvhWUWcfHixeXLl9+7d0+lUnHTdiKRyNXVtX///pMmTZK/Z+HtF0GlUlWrVk2v1798+fLv28vfxF8VrHfJ0jwNejEyTXmfoihCWJoWV7Tu2cr9VyH9CU+Mr45yw9b8BQuNqSkURbEEAqFQ1q+v5aIFAqc3ffaEaM9dNEQ+phUWRKOkzM3lfXtRUgkAzdETxrhYSmEBliWaAkmDRuK6tQAY4xM0x45TlAgCAdErpa3bFFdAJiFJffQoBSEEQqIrlLZuI/J9+/0Qr3eu1RseRRpfJpLCQqJWv57JpymiVlKmCkXfvh96zdZ/iZA0RGUhTwuRAPYK+DmiTEn9RR2D2DwYWEhoeFq88S6HZCWy1ZCIkKGEqxlczd/o1D5+/Pjp06c5OTlCodDW1rZq1arczM+f1Cok5NmzZ/n5+RKJxMHBwc/Pz9bW9k9z/UWUSqWPjw/DMAkJCe+LpP/X8uUFCwBLDNE5x3O1sTQtdDapW8a04RffxT8Ak55piI6CkSEMI3J0Flb+tDlmHp5/J0aj8ejRowKBoFu3Et7v9i/nbxEsHh4enr+D/9M3sfPw8Pw/wgsWDw9PqYEXLB4enlIDL1g8PDylBl6weHh4Sg28YPHw8JQaeMHi4eEpNfCCxcPDU2rgBYuHh6fUwAsWDw9PqYEXLB4enlIDL1g8PDylBl6weHh4Sg28YPHw8JQaeMHi4eEpNfCCxcPDU2rgBYuHh6fUwAsWDw9PqYEXLB4enlIDL1g8PDylBl6weHh4Sg28YPHw8JQaStnPKPL8dfbv3x8aGmppafnnpv9iaJrOzMxs2LBhly5dvnZdeP45eMH6z7F169YrV6587Vp8GVJTU3nB+k/BDwn/cygUiq9dhS/G/1NbeD4GXrD+cwgEgq9dhS8GTfMX8H8L/nzz8PCUGnjB4uHhKTXwTnee/0MIQVp6vlj8ocGv3sDI5VJzU8k/Viuevw4vWDz/b+TkFPTpNyos7IFUag2Q91hROp3S1FS8c8e2hg2q/ZPVK40olUoTE5MPGBBCtFqtTCb7u2vCCxbP/xtqjfb2zQdK5TMg6wOCBSgz0gwpqZn/aOX+fgr1CH2Cu4+RkIfMAugMoKk3DAjAEphLUdMN3dvCyfxDpSUkJPTv3z8hIUEgEKxYsaJTp05Hjhw5efLk9u3bi2ZvVqxYsXr1aqFQ2Lp1640bN1IUtWHDhi1bthBCunbtOnv2bIqiADx8+HDXrl0rV64EkJGRMX78+GHDhn3zzTef1DpesHj+33BxtouNvZuckimWiD5gptPqzcxNyno6/2MV+7tJLUDASew6h6h4IBVQAwKAKsmUAMBuUyzfi5U/oHujkgtMSkpq3LixSCSaMGFCcHDw0qVLO3XqFB0dvWvXrt9++40TrEWLFv3888/jxo2zsbFZvnx5SkrK4cOHg4KCWJYdMmTI1KlTHRwcRo4cCSAwMHDVqlWjR48uV66cUqk8fPhwo0aNeMHi+a9jNDLnL14PCY02NZV/wIymaIZh8woKjEYjwxCNRt2nVzv/No3/sXp+WXacxc8b8TICYAELKCqinB1szSASgX2zl0kBQhrxmXgUhcQo9BiLU5vQvn4JZU6fPj0rK6ugoIBbV5CXl8el29nZcR9SUlJmzJixadMmTpI6dOhQuXLle/fuValSxWAw2NraGo1Gbk1Fbm7u8ePHAWzZsmXZsmVSqdTa2loi+WQHIi9YPP9vpKZl9e/XB9B8asaYqKgPCFZmZu69B1FiiZBhWIlY2qRxNbrEzsubqNSa8xfulyvn7OHmtH7DTj+/Gi2a1/nUin0YAny3HBsCgHzABi1bo08jtKgJW2tIBSV3sACoDTh0CWNXQ/UUwxcgbD8c3hkbvnz50tPTk6bpkydPzpkzx2g0Tp8+3dLSkqIornuVmpoKoHHjVwetUqVKNE1nZ2c7Oztv3rw5Pz/f09MzODi4Z8+eW7ZsMTMzCwoKGjBgwI8//igWi2maFgo/WX94weL5f8PZyW7Hzr3JibHAx8bBExCaUtdv+KHu1aUrd/v0+hYQAAWAtlnzHvv2bXGwt/hwyYkJGV07N+3ff+KEScN+/GFM/Qa9WjQ/8DIx7fr1B317t/0iQbx95uDgHoBG2ZpYOAE9m3xULrkIA9uAUBgyG2nPcPoahnV826Z79+7jx4+/detWx44dy5Yt6+vr++LFCxsbG41Gw7mlqlSp4uzs/P333wcFBQGYPXs2y7LVq1c/cOBA586dt23bdvXq1WbNms2ePfvIkSOxsbFBQUFZWVm7d+8eN26cVqvl4n5Zlv34AOBSKVj3798/fPiwRqOpXLnyiBEjvnZ1eP5d0DTVu3enly9TBDQF6iN6QQDLsgIB7eXp9AEbihYAhX5+LXv16nDn7r1jR7ZP/cFtd8AyAPEvs0QiODvZZGWrpRLKxEQGIDU1nxaAUEJAWqAs9KngNWL07NatGqk1hgEDJly/er5GjUgnRxOVyuDsZM1VMyU1n6YZezurj6s1APywEQf3AGI0bIqjS2Fr+rEZOQa1xrLjeBKEe1ElCNaYMWMeP37ctm3bSpUqGY3Gxo0bjx079tSpUwUFBT4+PhRFLV68+OzZsw0bNnRzc5NIJPHx8Vu3bnV1dRUIBHv37n3x4sXLly+nTp165cqV0NDQAQMGGAyGBg0aBAQEDBs2zN7e/vvvv1+6dKmnp+eJEyeoj2tzqRSs/Pz8J5GP3T08IyMjz5w54+/v/5Gt5fkvkJqW41ulYXZmFGD2/lnCtyCAsmPnoSeO/fY+CwEtAvTdurWeOnWkWjtScez81cvnCVm2fuPecWPHArLWbb95GPF41PBhc+eM3bvvzNBho3QaXZPmzUDZWFrbq9Wam7dul/Nynzh59vWrZwCz3r2/HTJ08NQf5o4dNWjN6lnXb95v2brXqOFD16ye8ZEtvRiCZb8BQvg1xPHlsP6shZUWCgBQGkpqskCwefPm5s2bnzp1ysvL66effpLJZI0bN962bVtmZqZGo3FwcKhcuXJERMTq1asLCgp27dpVt25dABMmTKhWrVphYaGjo+OoUaPu3r27f//+Hj16AMjMzDx79qzBYNi8eXNISEheXp6rq+vH37+lUrBgZpZlbl3NxmbKd9+NGDNGKpW2aNHi79sbISQsLMzU1NTNzU0sFgNgGEan08lksncPtE6nI4RIpdIPl6nVaimK4pyOBQUFhYWF3I7EYrFUKuW+clhbW79VWlpaWkpKiqmpably5b5IA78iVatWdXV1/f33341G45cqUyoRNWtS7/kLRxNTSxC2JBOKoiiVSqPT67nvhCWFyvzKlct/oFiKYgGzYyevSOSmMTFJYFNHjJx69dr9cWO/rVv3m9Zt2i5ZslGnfS6TS588ifm2X3evsr79v+25bfsRkDRLc7PcnLwnERdDw6o2rF9ZYeKsUurLern26NJq+bKV69ZvXLN61tEjJ/TquK5d2nxkM/VGTF0PZMOpEo4v/Ey1epGGqOcAjbJ277Xp1atXr169ir66ubkNGTKkuIGrqysXrFBErVq1atWqVfS1Tp06deq88tzZ2tr2798fQJMmTZo0+bjha3FIKUTzODzmQMDWTZvGTJg4bNiwwMDAv3V3RqNx8ODBXJiJWq0mhJw/f75Zs2Z5eXnvGo8bN+67777jPh85cmTbtm0lljls2LAFCxZwn5csWSKTySwsLOzs7BwcHMqVK2djY2NlZWVmZqZQKM6fP1+U6/Hjx+3btzczM7O2tra2tvby8tq+ffunNqdTp06ffJUAACwtLUeNGuXm5vZ52YvTsWPH6tWrAzhy5AghpGjW6VMZMWLE+5oZn5ifma0s8S89qzAlTcmwRK02qF796fPydR8+boePXgTcADfABMA3rQcyhPTqNVQgtEjL0BBCTp2+BsiWrtgxcdLPAO4ExxBCQkKfAcJBQ36If5kKmPcfNI0Q0qRZD1OzspnZOkLIrLm/AtIdu865eTT1rtDs48/jsRsEFQjKkl+PfnymNzAQ0v5HgvIE1Uhw1GcW8g9TKntY7NkT5Q5sTZ669DolMBOL/+53jAgEgmXLlkkkkkOHDuXn58tksqysrLt375bYKYiMjCTk1TAkOTl5/Pjxbm5u73YAHz9+zDAM99nf39/GxkYul0ul0gsXLgQEBKxfv14ulxsMBoPBULlyZc4sICBg0KBBHTt2/PXXXx0cHLRabUhIyJAhQ/bt23fmzBmu6/cXoWlaKpWq1eoSt3p7e2/cuLFjx44vX77kUhQKhUqlel9pFEUVHQoAZmZmBQUFXPrevXsPHDgwfPjwn3/+OSAgIDMz860C38r7SeTlKydMmBMefl8kMn/Xh0UBLAuDMatTp+7z5k5+veHPg7RpIG3k6KkNGzbq36+tTGJCAyqVViAwqjVaQKpWqbkRqEwqAaBSKwGoNCqAEggEhBCAcNXRalV6IyOTCgEMHdRt5bKNEydOys/JmTtv7sc3M+B3QAW3xhjsX8LWHCVOBSNXCZ8yaO1XgsGdKPy0GtdvAWoM7oc6FT5+z1+Vr6uXn8GyX3/9ZcY0oirgvhYWFhYUFPwD+71x40b58uWTk5MJIUePHvXw8MjJyXnXrGvXrp06deI+Hzp0SCQSAXjw4MFbZm3atBk3bty72c+dO1e+fPl30w8cOABg48aNb6XHx8fb2Nh07dr14xtSYg9LLBaPHz/+5cuXT548mT59OoANGzbs2bMHgL+//4kTJ6pXrx4dHU0IKSwsrFatmlwuP3fuXGpq6sOHDytWrAhg+/bt+/fvj4uLCwsL6927982bN1NTUwcMGACgQ4cO0dHR0dHRmzZtoigqICCAEGI0Grt3796qVavNmzcDKFeuXEhISGpq6sWLF11dXQFs27bt0KFDiYmJjx498vb2LvHqLbGHFf8yVSDkwkFNAZOS/swBVKzczMh8/GEjO3cFAZg0aQYhpH3HkQCOHz93/foDALb2vh27jgDsAcyau+HlyyTAFLRTh07DxTJvAIMG/hDz/CWANv7DCSGduw4H4OrR5Gl0HCFk3PifAdDCcmEPn35kZTIKiFUHAk8y5bcStgbeJO5dCbwJHAhqkvY/kIi411u1RjL7NyJtSuBC4EX8JxOd4UP7unHjxrRp044dO0YI0Wg0W7duDQwMPHfu3M6dOw8dOsTZHD16dMqUKcVHA38Tn9DDMhqNhw8fTk9PNxqNlSpVatOmDcuygYGBGRkZQqFQo9HUqFGjWbNmv//+e3R0NE3TI0eOfBUYdu8WEhMgFkEkAcugsAAde4BbdhR8A8pCfOOPyHAkxKNtJ8RGIzwUWg2at4GDE4CIiIhr165RFCWXy/Py8gpyciZMm/mkUHk5YI9CIhkwcKBAIIiJiTl37hwhhGGYLl26uLu7A4iNjT158iQhpEOHDuXKlUtJSQkMDJRIJEKhsLCwsFWrVkWdl48hLS2NZdkipxXLlugcASnWL0hOTm7btm21atX8/f3v3r3L1epds+JkZWXpdLrCwkJT09fzPRqNZvjw4T/88MOoUaPesndzc7t//76Hh8e+ffv69u378c15Czs7u8GDB2/bto1hmIULF54+fbpWrVoVKlQA4OTk1LFjxxkzZty6dcvb2zskJCQtLe3EiRN16tTZsGHDgAEDTpw4Ubdu3aZNmzo6Ou7atat79+779+/ftm2bvb39+vXrjxw58u2338bExGzduvXEiRMvX768ceNGnz59kpOTU1NT+/fvP2LEiGnTpp04ccLKymrnzp2jRo3av39/kyZNunfvrlAodu7cOXTo0NWrV7dv3/59x/ztY+LqEBV1OzsnXyaV4D3HWa3R+lTwFHzKy0qcnWx8fWs5ODgBWLVyZnrao737jgYe3LRufeDcuVNv3rjY79v+MTGPLczkrq7OOwMOzpw18erVoFatOqanenh7uyvksmrV6lWpXA7A7FlTc7PTn0Y/V6vUAHr27rn21zm1a1aqVvVDTrTiRMYjJxcwQeN3lDw4Cn1+AJMOWMOsDAoycfoMrt7DkvEY2wV3ozFxMYLvAlqIXTFjOGYP+tCOxo0bt27dunr16q1Zs6ZTp07ff//91q1bnz17lpub6+zs3KRJk44dO/bp0+fMmTN16tRZvnz56NGjN2zY8AmH9VP5eG3Lz88v7v09efKkXq+3srIqSunSpQshpFq1atzXTp06aRmGEEIGdCJmIL5OpLITqexIHEVkwmCiUhJCSN8OxM+TEEJmTyHeNoQQsn4pMQexp0nP1iQ5gRAya9as4hXOz89/8uRJ0X5r1aqlVqu3bdtWZODj45ORkZGSkuLh4cGluLi4xMbG3r17t3g5y5cv/yRpP3z4MKd6hJCjR4+6ubmV2MPq0qVLUQ9r6dKlDRs2JIQMHjzY0dExPz+/yKx169Yl9rD27dvn4eHxVp9x7dq19vb2BsN7n4ODBw+uWLHiRzakxB4WRVEtW7Zcu3Yt9yDt3LnzpUuXoqOji06rXC63t7cnhFhbW5crV44Q0q1bN+5ocxUIDQ1dv349gPXr12s0GgD+/v5Go9HHx8fJyWnp0qWbNm0ihGzcuBFATk7ODz/8AGDHjh2PHj0aMGAAIYTzanXo0IEQ0rx586SkJM6Vu3nz5szMzBIX35bYw2IY5sKlW/MXbVm5OmDlml0l/q1eu2fRL79NmLxk194TLMt+3JFjlUqj0fjKmCUkI/OVEzM9szA9o4AQYmSIwWDkEvMKdKlpeYQQo5Ho9QwhRKNhGeb1vvLyNSxL9h0IcnXzBYSHj/z+kWeQELLuKEFFImxNwp6/vanHbIIyxKw1OXSDRKeSwUsI6hM0IPAjdUYT4TcE1QjqkhajSGjsn+xl69atADg/6a1bt9q3b//kyRNCyKpVq9zc3F68eEEImTZtmlgsfvjwISHk3LlzALhVhH8Tn9DDYhhGq9V+9913s2bNqlix4okTJ1q3bi2TyVq1arVz587o6GhHR0cAXFdrx44djRo1Gjh06P4dOyiKQpPG+HU75nyPvFwcv4JJwzFpKDYfQPmKuH8L3b9B/AtU8gUAIwMvN+w5jY3LMeZbHL9qACUUCp8+fbpnz565c+cSQu7evZuTk3P16tU7d+5MmzYtJyeHC8C7cOFCTk5Or169nj17JhaL4+Lidu7cKRKJ+vXrd/PmzX79+gUHB48bNy4uLm737t3FZzH+Jmia5m7d7du3t2jRokWLFvfv3/+Mcm7evFm/fv0PhAU3bNjw1KlTWVlZNjY2n1fV+vXr79mzZ9euXUeOHPH39+fONecc5MoUCAQuLi4AnJ2d09LSAHh6egLghm9KpVIgEHBnQSqVcn4oS0vL9PR0iqJ27NghFovnzp07aNAgrVYLwMTEhHO0GwwGkUiUn58PoEyZMmFhYVyxubm5BoNBp9MBoCjKaDR+fGxhQlJ6yxatgPc6195E0qJZspOj9UdYUgrF6zhPCrC1eRUbbmfzSkwFNEC/sjE3FZubigEIBBAIaABS6RsONXMzKYDftu1OePl0ydLt3bp+7PwggMICQAWFGczflHEWeP4U0KFbW3RvCABrJ+LMfWRkAPa4exeQAwpsmILRnf98L7t27apevfrgwYMB1K9f/9SpU1y6jY2NRCLhOgT79+//6aefqlatCqBVq1adOnXas2fP8OHDP74tn8QnCBY3DZ+ZmRkWFmY0GrlJfYlEkpKScvny5T59+nCXlEajKVeuXJUqVSpUqBARHs4CAtCwtYe7F2zsoVHDqzw8vXHnGgCIhBBL4OaFnKxX/lGWhYkpfCqjih8unAEgFItpmg4NDY2NjQVgMBi4kWaTJk24ARohhLtV7t+/n5yc7Ovr6+HhwfUOmjdvznmjOZs6deo4OjpmZ2e3afMJF0cRnMZzH2ia/pjgkaLb7Pfff69YsWKTJk2uXbsGoMjj/jFwR/sDBgqFQiAQcOL4eQiFQjs7O1tb2w4dOojFYoVCsWfPHn9//6CgoIYNGwKQyWTPnz8HsH//fn9//82bNy9dutTHx6dHjx4nTpw4e/bswYMHnz59CsDc3Nza2hqAXC63s7NjGMbNzS0vL699+/YSiYRbWXb37t2xY8ceO3ZMp9OVL1/+4sWLBw8ePHDgwIEDBwYPHrx79+6wsDB3d3dOKy0tLc3MzD6+LQ52Nkt+WZmbnSwQmJP3x2FRoFi20NXN4+PU6u9i2S+zTNb/4l2uzCflogWAAEYj3p34EcsBGs9fzYvg4XOoCgAhUABQgA6Q4Nwt+HiiaZU/2YuLi8uFCxeKvsbHxzs4OHDTMkajkXNc2NvbP3z4sMjmyZMnf2tX4BMEi6Zpe3v7gwcPHjx4EICzszMAExOTiIiIb7/9tkKFCn5+fpyZwWAAYDAYLCwsaQAUoNcCgE77yqfAGmFrBwAZaXBzx4rNWPsLDgYAAEXByACAQQ9rW4AyNTXV6/U9e/YEYGNjU3w1A/dk5txbADhv8dy5cx0dHe/cuQOgoKCAsy/KpdfrGYb50/f7vItUKiWEcELDxWGV+MwXCAQlTpyJxeIHDx64uLgMGjRo586dZmZmH69Z7u7uV69e/YBBVFQURVFOTh8K1P4w165dGzBgwMyZM4OCgsaOHRsTExMaGuri4tK6desFCxYAoGk6Pz+/V69egwYNsra2HjVqVFxc3IgRI7Zs2fLjjz8ajca5c+dGREQA2LdvX0hICIC7d+8uWbIkPj6+X79+a9ascXR0HDNmTHZ2NoC+ffvOnz/f3t4+MDAwOztbpVL169dv0aJF3bt3nzFjxpIlSwQCwdy5c7mTeOjQobCwsPfNXb6LVCr68YcRSUl5AhH1npcVcBBAwLDGCxfu2tvbVani8dlH769Qo7rPZ+RydgQsocpERg7KFXvfBA20b4G7F3HjBrrMRSV3bDsHVTaggmc1/Pgtzt7HsaM4sQ8nrmF8H/w8ChbvfxROmzYtMDCwTp06S5cu3bVr14kTJ27fvu3t7a1SqVJTU1Uqlamp6Zw5c/z9/QcMGNC3b9/ly5c/f/788OHDn9Gij+XjR4/5+flFbuM9e/aoVCrO8dagQYOwsLAiM1dXV84NUbdu3dqNmrCEkEFdybcdCSHku0GkR0tCCBk/iPjXI4SQiUNJ+waEEPLrL6SBDyGErFpIGlcihJDt60idcoSQpWt+5Xbat2/fuLg4QsiqVau4ml+/fh1AYmLirl27ABw8eHDVqlXW1tapqak3btzgNmVkZADgZqYIIW3atHFzcyssLPzUwfPevXsrVKjAeZfOnj0rkUhiY0vwAbRs2bJ3797c5+XLl9eqVav4Vu6W3rp169ixYz/eh/X48WMAN2/efF/d3N3dhw0b9pEN+ew4rH8hJfqwMrPyvMvXBySAM+D0wT9nwBEQA1YPQh5/5AH8NxART9CcoDzZevrtTTlK0mAcgTuBB4EbgRdBddJ3LknKemXwayCxbkngQVCOVOhOroR/aEe3bt2qVauWi4uLr6/v+vXrjUYjIeTUqVO9evXKzc3lbA4cOFClShUXFxc/P7/r169/4aa+ySf0sAghGRkZtra2rVq10ul06enplpaWOp1Oo9Hk5+fv2bOnfPnytWrVEolEUVFR586di4+Pt3d1ZwGBTg+DHgC0aqhVAKBRQ6UEAIMe8S/w4B7CQ6BRAQAFZGXj2kWEhUKnBQjXYWnevHnlypWfP3/u5ubGdZeOHDnC+dFpmuZConJycnQ6XXZ2dmJiItfnCgwM5AILimKm9Hq9Vqslnx7jExAQYGtry03eNWjQwNHRccWKFZybuYhbt24FBwcfO3aM+0pR1FvDRl9f3+Dg4BYtWohEohkzSliB8W4WAJUqVRo8eHDLli2jo6PLlHl77DBmzBilUrls2bJPbdH/KzQoG1urtAxXc7MPvHH0FRRotcZGLhdKxB96eda/jbJO8HFEVCyO3cewdm9sslTg3Ar8Ug1HLiFbBV8njO2PzvVeG4zrgbaNMX01DgXhaSiaDcHVrWhSveQd1a9f/969ey9fviy+gKZ9+/bt27cvsuFC4RMTE9+9OL88H69tubm5AKZOnUoIMTU1HTt2rEajKZqJA9C/f39CCOfy4Nh54CBLCOnwDenYkhBC+nckzaq9+lDLkxBC7t8iNT2JlZyUkZNtvxJCyMr5xFJAPMyIg4ysWkAImTBpMoDs7OyZM2cCiI+PT0tL41yzADp16sQwzPbt24t2WrduXY1GU1hYWLQaoHbt2lzXjBDSoEEDc3Pz4hN2H8ZoND59+nTy5MkAioeZnDlzBsD8+fOzs7MJIVqt9ujRowCK95uWLFlStWrVd8s8cuQIgGnTpr27adeuXQ4ODu9Wz2g0NmnSRCKRBAYGFkXYP3z4sG3btnK5/Pbt2x/ZHPIf6GERQrQ6NjNLmZev+Zi/rGxVfoH+4w/gv4SfNhG4EUkjEhFfskGhjmQryQdCzbadJNIWBGWIR1eSp/57avml+QTBMhgMx44de/bsGSHk4MGDt27dIoRcunTpwIEDhw4d2rZt2/379wkht2/f3rdvX0BAwO+//zFNG3KHhN0nhJDHD0lI8KsP9/4Y4Dx9TE4fJneuvfoa95xcO0+unSc3LhK9nhASER5+4MABQsjTp0937tzJjeaePXu2devW3bt3c6OnhISEwMDAAwcO7Nq1KykpiSspMTFx586d27dvL1IrQsj169dPnz79kTPZly5d8vX1BeDl5XX69Nud76CgIEdHRzs7u7Zt23p7e1MUtXDhwuIG7xMsbtPMmTPfTX+fYHFMnz6dpmknJ6dWrVrVrFkTQOvWrR8//rSxTImCZWFh0b59e84vWYr4wNKc/3ueJhBRfYIypM+czy9k/QmCGgTlyJ5PiKn4mpS+SPd/krCwsFWrVp07d45bQvguubm5e/bs+eGHHzZt2lRcFjlSU1MfPXr0vsLz8vLe1c2srKyHDx9ynoISSUhI2Lt3748//rhixQrumfGplChYLVq0IIT8fbPRfxP/ZcEihIxdRVCWoDrZfOozSzAwpNwIAjcycmnJBizLGo1GrVZb/JrMyMh4u5z3BAkyDMMwTIn9A4b5lHUGf8AL1n+OEgWrdevWJW7iFga8Ty+Khw1/Ff7jgpWeSxw7EZQlggbk0HunZP6EhlMIXEnv+SVsCgkJadmyZbly5RwcHIYPH04ICQ0NrVOnjlAobNSoUUhICCEkKiqqffv27u7uTZo0uXr1KiFk6tSpRaOHkSNHHjp0KCIi4qeffioqNjw8/LvvvlOpVJ9RW/6HVHkAQK1WGwyGOXPm3L9/PyAggJupGD169O3bt4ODg7lFPzNmzNi6deudO3dGjBhB03RQUFB4eHhwcDA3av63odPpDYYSVqfn5RUUFCiLvhqNjFarA6DV6vT6kl4K9Sb5+YU63auX0hgMxoyMHO4zef80jlqt5Xak0WiLp2dn56nVHwqdy83N/0CxAOwscGQhZLZgUtFjCtYf/dPqv01yFqLjAAruJT16IiIiLly4MGHChM2bN/fs2fPKlSt16tTx9vbevXu3nZ1d/fr1ExMTExMTT58+PXfuXD8/v06dOqWlpd28efPs2bNcCRcuXIiLiwOwZMkSbmkqgBEjRly8ePHzfhOsVL6tgeeLwzCMQCAQiURPnz4dMGBAUFBQZmbmhg0bWrZs6ebmtnfv3ujoaC54IiUlJSMj4/jx423btp03b96kSZNOnjxZo0YNbk7mX8LhI+fv3nskEotqVKvQvVur/QeCPDxc6tapcuDg77eDw1mG6d27bcP6NY6fvOLh5nzqzNWMjCwLC/Mhgzqbm5tu3XZk3Ng+Mpk06OwNRweb6tVexUkZDMZTZ67+fvZmpYplJ47/Nj4++df1+wA4OdpOmTxIpdIcPXqhY6cWFuYmO3ed9KngXqd2laCzNz3dnR6GR9+4GSaWiPr2bkvRFA2qRo2Km7YERj2NAyF9evvXrVNl1ZrdFI2J4/o/DI/OysptUL/6nn2nHzyIbOffuGOHph9oab1K2LcMfX6ENhHfzcfJG5g1FPUq42NevcwCE35F5hPADK1L+hEKkUhka2tbpUqVsmXLOjo6tm7dukKFClwIUe/evStXrrxo0aLOnTvL5fKBAwdev3595cqVGo3G2tqaW6IAwMLCQi6Xc9HC/fv3/+abbzZv3nz37t1u3bp93ks3ecH6EPHx8RKJRK/XGwwGpVKp0+k8PDwePnzIvVBBr9d7e3uHh4cnJyd/8803YrH4/Pnz7u7uLi4uwcHBtra2lpaWLi4uBQUFDMMIhcInT54olcpy5crJ5fInT57Y29sLBAIrKyuKou7evVu2bNmyZct+rZZKpVKapmfPnn3s2LEePXo0btyYq3bbtm25CNvq1atnZ2fHxcV5enp6e3t36NChT58+Bw4cOHz4cERERLt27Yqen/8GQh8+rVG9omsZh/lLttjZWcXGJnID26PHLy34+TuKohQm8vT07FOnryxdPLnlN/WWLd/Ro3trd3fn4ycvr1qzu17dqo0a1rh/71GlSmWLBOvFi6R5CzZv3jDLzs46OTl9zs/re/Ro3aBe9Sk/Ld+0JbBL5xZXrj1o8U09C3OTi5fuAKRO7SpXr92n6dqtWza4ePluhQoetWpW3rL1kIuL/cVLwXfvPZr/83dJSembtxzy8HDOzcnfEXCig38TZaH62bMEo9F4Jzh80YLxet2fd/o6N8CVLRgxH49CcP4kzt9B0xpo1gDlXWFlApou4VdzREIkZmHHcVy+CqjQrS8aVyuhZCsrq+zs7MaNG1tbW4eHhwOoUuV1dHzZsmWfPHkyZMgQtVptYWGRn58/atQoDw+P9PT0ohec0TSt0+ny8/NtbGwqVapUsWJFd3f3Bg0aFH9F5SfBC9aHSExMjI2NLSgoSEpKGjp0qFar/f333/Pz8zMzM9PT0+Vyube39++//67RaPz9/QEUFBSEhYWFh4fXqlUrLCwsOjr6p59+SklJyczMlEqlWVlZFEUlJibeu3evXbt2SqXy4MGDrq6uNjY2IpEoNDTUxsbGwsLiq7SUe9wVLW5nWValUgkEguDgYLVaLRKJHjx40Lx5cy6ElTPjphS58PoPvBXrq2BrY+nt7eZXo+L0H4edOn3N093Z2dnu9JlrfXq19fZ2X7t+n7mZib9/YxtbSzMzRRXfchUrejZq6KfTGa7fCJk3d+yJk5cbNazh4GhrYvL6h8Lc3Jy6dflm5epdc2ePuXEjRCgUtfdvAuCnKUMX/rK1fr3qzs62IoEAgJmZwsrSHIClpRkILK3MqviWq1rVG4CJidxgZO7eD50yeZCLs72Ls/3tO2E3boS0bFnP0tpi3/6gTh2bW1ub167le/7CnSVLt8+c/lE/WVC3Iq4HYOlv2ByEnOe4ehhXjwOmgBlAlxSLRgOFQAEgRv3W2D4bJfqGuDXnx44d8/LycnJy8vPzW7x48eTJk2vUqHH37t0TJ07s2rVLqVRKJJJt27ZNnz6deyq4uLjcvHlTrVYXFBQ8ePBg9uzZDMNoNJqAgIARI0ZMnjw5ISHhrQDGj4f3Yb0XQoi9vT23aNnHxycmJiYlJcXV1ZXrEzk4OCQkJNy/f9/Ozs7Kyopbx+fl5cV9ePbsmUgkksvlgYGBLMtGR0fHx8f7+fl5eHjY2tq6uLhERUVlZmY2btzY19eXZVk3N7fs7Oyi33375+FWXHKrnYVCIbcGS61WN2zYsEWLFp07d87IyLC2tubWt0dERJw5c2b58uVbt24NCgq6c+dO8RVn/wbUao1YLAJw4eId1zIOao1WpdI42NvcuRsBwMfH88jRC0qlGiwYI6tSaXJyC/QG45Wr9x6GRysUstvB4WEPn5ooZCLR6ye6SCScNWPksKHdpvywwmhkpDIx5/O6czdCLpPK5RK1RmdhaQZArzfm5OQByMrM5cY9Odn5efmFALRavUggtLezvnU7jCs2/mWqm5tzzLP4Lh2bVaxY9sfpqwqVaisr85XLpzo52o6buMjwcS+PthBj0Rg83IYFc9C8Pxx9AQuAAQyA8Z0/LSCBexV8PwVn18LsPd4kvV6v0+l8fX3d3Nwoivrxxx9bt27t5+dXpUqVunXr9u/fv3///jk5OXq9vlu3bgcOHFi3bt3mzZuXL18ulUrLlClTpkyZhg0bdujQQaPRqFQqlmXPnTvXunXrBw8efPxCq7fge1jvhaIod3d3sVhMCKlYseKLFy/EYrGLi8ujR4/c3NzMzc1jYmIAdOzYMS0tjXOOmpqatmrVysnJKSIiwtXVtWnTppGRkW5ubmZmZkKh0MHBwcLCQiQSeXt7R0ZGWltbOzg4cPuKjo7u1KnTX1kM+Bd59uzZmjVrwsLCACxbtiwyMvLZs2ctWrRYsGABwzA9e/ZMSUnhXi7G2ffo0WPq1KmdO3des2bN3LlzlUrlzz//XK5cudzcXEtLy5iYmPnz53/SAu8vC8uStRv221pbqNXaqZMHr/p1d6FS9W3fdjPnrp89d71Wq6vsW85EIRcIaG5tgbmZSVJi2u274T98P7hyJS+jwRAa+kQiFW/57XB4RLR/2yYVyrvn5hasWrNLq9P7+pbt3Km5qYl8wuQlNtaWiUlpM6ePcC3jGPciafzExW3bNho3ps+mrYeeRL0wM1PUrVMVgFgqEgmEAGiapgVUn15tf5y+OiFxnapQ7eXpUqtmpctXg5VKdbeu36xZuzc5OSMzK3fd+n1KpaZxw5LeFvp+ythjRh/M6IPEHKTloFAFkLfXU1KAkYFIjAqucPjgovJ27dq5ubkVvdHX3Nz87NmzgYGBMTExs2fP7t69O4AGDRqcP39erVZXr179+vXrarXa09Pz3r17e/bsEYlEo0ePBuDl5XXhwgV7e3uunO++++7bb7/9pHa9rvyHpyF4/v/o3LnziRMnvmyZIpHo4MGDNWrUSE9Pd3BwePDgQa9evb7g70q8jxEjRnAvLH2L1LSs+w8eWVlaNGxQHUBySoZCLrWwMNPrDPsOBlEU1aVTczMzk9TUTHsHG5Zhc3Ly5XJpbl5hGZdXN1VKSqZYInwQ8kSv09eu5evgYMOy5Obt0CdPYnv3bGthYQrg4uXg588S2rdv6uJsB+DRo5gnUS/c3Z3q1K4SHRN381ZY755tFQoZgMzMXKlUYmoqz80tICBWlua5eYWHj16wtbbo3Kk5gPSMbBOFTKGQ5+crVSqNtY3FqVNXCUiPbq3+7mNYuuAF6z/H3yFYX4v3CRbP/yu8D4uHh6fUwAsWDw9PqYEXLB4enlIDL1j/Of6fvJb/T23h+Rh4wfrP8dkhMP9C/spr7HlKI/ws4X+OqKiojIwMuVxeqk89RVFqtdrZ2fkrrmfi+efhBYuHh6fUwA8JeXh4Sg28YPHw8JQaeMHi4eEpNfCCxcPDU2rgBYuHh6fUwAsWDw9PqYEXLB4enlIDL1g8PDylBl6weHh4Sg28YPHw8JQaeMHi4eEpNfCCxcPDU2rgBYuHh6fUwAsWDw9PqYEXLB4enlIDL1g8PDylBl6weHh4Sg28YPHw8JQaeMHi4eEpNfCCxcPDU2rgBYuHh6fUwAsWDw9PqUH4tSvA8+9CrVIZGYaiKAqUTC4TCARfu0Y8H0uaCjYyCP+vOyFfTLCMRqNKpZJIJFKp9E+NCSF6vV6r1SoUCqFQaDQatVotIUQmkwmFvIb+7RCAKim9sKDg6dOnZmZmQqEwLy/P2tra3cPjn64czycSm4+j4dj/CCIxLg6EqfhrV+jv5Iupw7hx486dO2dnZ7d3714vL68PGz9+/HjYsGGZmZldu3Zdvnz57t27ly5dyrLskiVLunTp8qWq9JfQ64lWB4GAgAIIAVV0j//xw7MUoSgALEtomhbJRR9TKsuC/gsPwJycPI1WSwikEpGNjfW7Bimp6SxLBAKaYRiJWGxjY0VRb0vT4iUrrl+/rVCYgGItLG2UhQUGg16r1frV9JswdoSzi7O9vQNFUZmZmf/Mj9rrDUalSmtmKhPyvblPJC4PE87gVChAAAMsXN7zIPrLEELevZC+Cl9MsB49ehQXFxcXF6fX6//UuKCg4N69ewAiIyMBJCcnP336FEBWVtaXqs9fgb102RD+SJ9dwFAio0BshJChREZKxAjFRlrMUkIjLTISASMQG4mAEYoL840utV0r+X9IpkPD2Gu3MGEMTYh++qzl3bq0q+lX9X3Gv/yyOis7e9nS+cUTd+46uGnrLk8PN6PRqFSpnRzsFs6fZm9ny22NePRk3sKVeoNBKpHQFJ2ZnePl6bp6+Xy5XPZW4ZcuXr50KQgQAIzUpIxWmQVoAZKekTVh3GgThYIbBsrl8uKnMj+/MDcv39nZQfRFu8A6nbHvtwMjH0cMHDB42rTJJdqoVZqMzGwHB5uP6by/BZN8haRdJuoE0BKYVxaU6UCb///0GW/F4dQljOqMwfWw9BLOv4CkpJOj1+sNBoNCofiMXWzfvj0yMnL58uV/ta5/oFKpBALBZ5xKjs983L98+TIpKal4iq2tLQBzc3NLS8vi6YWFhfHx8Xl5ecUTJRKJRCLh7AHIZK9uKpHo7X6KUqn8mPqoVKriX41G44ftCSHv3XD6FHPwAJuRSZuaUiYKSiYVmMgFpgqBiUygkAoVUlC0WCGR2pqBEJGJBBSlzdHkJBQkPXqv2ubksLdvGbm+FcMY7j0Iy8h4rzEh5ODhk9t37i9UvtGoW7fv1a1VY9H8ab8smrli6Ry1WtOn/yiDwQAgNu7l0BGTK3h7rVw695dFMxctmLZx7eLpP06QSiXvlm9qag0AIkeh2Mm7vI+5pQtoB0BobWVDUSQtJSUzPT07OzspMVFd7Kiu/nVj9eo1IiKefuiwfjoMIUcPn45++vhWcMj7bA4fPV29etVLV259UsnEaED4FMHzgcKkdcb4s0z8MVHSXPpRNyQE/uVa/1swNQEsMKEpattCQsBSEJfUDerUqdPmzZs/bxcHDhw4fvz4l+peJSYmtmjRIiIi4rNL+OSn5ZkzZzZs2HD58mWZTNa6desVK1Y4OTlNmTLlzp07QqFQqVQOGTJk7ty5tWvXzsnJ+eWXX86fPx8fH+/s7Fy3bt0JEyb4+voCIIRwklH8/7dYu3bt9evXY2NjK1WqNGHChMuXL4eFhdnb269cufLp06eLFy9mGKZHjx5dunQZO3bs/fv3hw4dOnLkSC5vWlra5MmTJRIJRVFDhgxp2rQpgPnz50dHR2u1Wj8/v59++qnk5r14Qc6eodzcKaGMtrEWWtsIGKJX6YjaQLM0oYSEEkgtzVkIKDMTIhbrlEaWYb0au+mMgls7nrSYUN3GzfStIjUasn+3hqGE5X1ohgFF0fb2NjLZe58wBwKP16zl16Bh/TVrt8ycNqko3dTM5H/t3HVAFGn/APDvzBbL7sLSnYKEAYgtFjYgBnaBnmJinO2p2GedYhcWdmIXKiYGKoiEpKQ0y3bOPL8/xpfzFL3T38XLvfP5a3fmmWeeif3OU7PujV0dHeyor8eP7ArqN/rchWvDBvc7duxs0yZuq1Ys/CNXEOE4AIfP45JIRxBasagKQAJA1NaKjI2EbCZOECSDwcAwzMjYuG4riUReK6pksv7kHkY2E9u6Y0tVRX4zr9ZfSlNdXV1bWyOVSL8pZ/R6XvGz7W8UDi7mjs5mTNChhHdapCr3KZqRlSepZfmAVqzTEe3bt9fX56WlpRYVFRsYCHAcV6vVBEF4eXmbmJgAQE5OTkpKir+/v1AoBACFQpGcnEQQBEJIo9H6+HibmJhSe5TL5Xfv3pFKZY6Oju3btweArKzMoqJiDodDkoRGo7W2tuJy9XNzc/T0uEwmQ6fTKRSKJk2a2NjYUjk8f/789evkwMAga2vrmzdvVFRUjh49ut6j0yBYHwcnHwMooEoMYAAqHcgLIegA6CFQqGFuAHR1BADYuHHjjRs30tPTmzVrZmdnt337doIg+vXr9/Tp09evX3ft2nXgwIGLFi1asmSJvb19aGjomjVrcnNzd+zY0b59+3nz5tnY2HC53Jqamm3bthUUFKhUql9++cXS0nLy5MmVlZXBwcF+fn6rV69etGgRi8VauXLlypUrnzx5Eh0d3aNHj1mzZp08ebK8vHzs2LFr1qwJDQ3du3fvs2fPIiIi9u/fz+fzV6xYIRKJpk6d2r179z94Wb/t/nvw4EFQUBAAsNlskUh08uTJ3Nzc48ePR0dHi8ViDoejVquvX78+dOjQJk2adOvWLTk5mdqwtrY2LS3t7Nmzly9f7tixI0mS9eZPRS65XB4aGnru3DlqYVJS0tmzZ9VqNUKIxWJt2rSppKTk6NGjANCkSRM+n79z504ASExM9PT07NixIwCYmZkJhcJ9+/YBQHx8/Nu3b6Ojo5cuXUplOHHixC8+MdJSMWNTpKcPJCJFtZrcYgJj4a6NuM3dCLVWK1FhBrza9PcKkZplheTVSqGbtYGAV5Urkoh0XCHnyak8/4kePMNfuz0JAs6fkCrkGMcQk0gQi4XpdPCl6h3l5JmLI4YOcHNzmRKxYGZEOJ//oSaPYZhSpfo4ZRNPt8LCYgAQ1YobNXL8WqYfYXH0uAIrZ2eH/IKi1i29In/6sbJahCGtqZn5iVOxarUKw4AgyEED+xkY8KlN5DJ5ZWUFYMxXr5IwpDExNbOxtgKAW7fuvEpKdm3cKCgwmMPGASDjbU5NTa2Pj/fDh/EFhcW+LVr5tmgKABKJ9PHjp63btC4vL4+Pj3dza9y9W1cAYDAY4T+MkEjkZmZG167HEYQuIKA3A8cAQC5XXr9xq337thYWFgDAYHy4V+Pj771OSbO0NG/VqpWTowOO13MpyeKbuPj0tRynSZtrw/uiPcvMiGpi0E8VBM5KijKKmDozIQcnNVIAaN++3YULF7dv37579x4Oh81isalK/alTJ4cMGQoAkyZNuHPn3rx589atWwcA+fn5gYGBUqmUIEgAaNzY9eDBg+3bd8jOzh46dEhSUjJVgPHjf9i3L3rTps179+5lMHCSRCRJDhjQ39bWbtu2bUwmg8PhqFQqgiDXrVs7b958ALh27VpExDSECIHAgMHAFi5coNFoU1JSfv75589HokgEj9+DiAFtfMFcHwDAyx7eiSBbAkoVMAAY/zkrZmZmJiYmlpaWZmZm6enpO3bsCAsLc3Z2lslk6enps2bNEgqFr169On78uJub2927d1+9ejVz5sw+ffrMnz/f2dnZ2dlZp9MVFxcvW7Zs+PDhz549Gz9+/NWrV1u3bn369Onw8PBjx47dunXLxcWFzWbfuXOnT58+06ZN69279/Lly93d3dPT0x8/fjxkyJAtW7a0aNGicePGfD7f2dkZx/GgoKC0tLQVK1a4urr+wVsXvjVgUaGBw+GkpKSkpKQsWbIkIyMjOzv7ypUrY8eOzcnJYbFYP/3004gRI0JDQ6lo1bt376ZNm5aUlJw+fVosFo8fPz45OZlqD36O6j358ccfqWilr6/fv39/sVh89epVKoG1tTWGYfr6+tRXExMTqfTXB2/dZw6Hs3fv3uzs7Hv37hUXF48ePbp169bDhw/X6XTDhg3r0aPHF49QowYmC3AMiaWYpTWuwxAwCbEMFZQK+3Zi8PUBQFmtkFcUYwwGQ4/lEtwUMLwy96Wxg8DRzvjF5aJHJ/K7hjZicz/0H9+9KnmXrenSW6AFRknZl0bnfpWUnFpRWdWrZ1ehoYFQaHD5WtzwIf2pVQRBGAkN61JmZObce5RwOHorAHTo0PrnddsmhYeamhjXm+3HCLVCrSjOSCO16qIWPrMHDwqilutIcHD0eF/0odHn5pbYoV1L6vOevTFHDu8Glt24sBEAsHvP4YnhY4YMDztz8rCpuX1VRWHbDv7nzpywtjJfv2HzoUMHnZ0b5+WkA2gBmHv2HQwfPyo3rzAgINDdo0lOXolOrQCQDxw0Zt/e7cZGgvkLl2/fuik/P7+mpmb0qGHzFqxc9/NiAOg/IOR23PXk1+lCoSEA6PP0tFpd2A/Tjx/ZxTMwl0sqAJgZmZnujZ3rOcaCCzipAxYXoIbFwIAEQECyGSToGCx9mQZjsDnbo9ZWVFQsW7Y8ImLa2LHjrK2tr1279vTps/DwCY6Ojl5e3gCQkPD4zp17AHD69InZs380N7dgMPDaWnGTJp5TpkwpKSlZs+bnZcuWXb16bdy4sKSk5JkzZ3Ts2Onq1atUDUsulyGEFi9e4u3tLZPJbG1tCYIwNze/fz/+9u27ffv2bdWqVefOXagyL1y4oG/f4KioKJIkzM3No6MP+Pt3cXR0GDZsmK+v7ycHqIfD9bBfvyIESzvD0s71XO7Q0NBly5aFhoZ6e3s/e/bM29v74MGDGo3m8OHD1tbWZmZmTCZz5cqVS5YsQQhFRkaq1eqqqipfX9/8/Hy1Wk31ORAE4ejoGBMTc+7cublz5xYUFIhEIhcXlxcvXhAEsX79+sjISBzHqdqZubn5wYMHq6urL1682KhRI0dHR3NzcxsbGz6f37Zt21WrVq1evdrZ2Xn8+PHnzp3LyckpLS11cHD43fuW8m19WHUR4ciRIwEBAc+fPy8qKurcubOfn1/z5s0BgMvlRkZG5uTknDhxAgCGDh16/fr1DRs2HD9+PDIyEgCysrJu3LhhZWVVbx3HxMSkqKiIqhlZW1vHxcUdO3bsypUrW7dupRJQW9U1IcvLy/v16zd8+HATE5OlS5f27Nnz49x27dplYGAAALGxsY0aNTp+/Pjp06cHDhz4tSP08ICy96BW4zY2SKPBBHycxyUlUtnzN6X7L5EaLQBgOA4YhhACHNOpCQDAmTiGYblPy7h8hkyiiz9RSGX25LY4O01pZcdKeKytqCAZDIz8at0KAM6cvRTQq5vQ0AAARo8cdD72at0qY2Oj3fsOz52/Yva85ZOmzuvg1y2wd3d3NxcAGDQgqHfPLoH9Rk2dsXDazEVzF6zIznn3pV0gEkhCp0UAgBQKZd1ylUohEBgD8ABMAHhM1od6IkLQN7h3tx5BoKv6cd6q6OgjwcG9x/0Qcebk4avX44qL8hNfpqa9SQ0KGgQAPJ4+kEpHJ7ubcXdu3U5wadx40sQJCoXaxNQUQPc2I+Xnn5c/TXw+f9Gq82djxo+PoPZAECqpVDZq5NCg4JHr1y5Jfp0WfeDY7bjrS5au9mruUVxcAgAO9nb37j89fmTXvEUrS4oLHiUkrl233sTI8LPjA0RokLwEcH0WTgDgPA4GBGAAhjyMr4fjQCJCa21tN3nylMjIZQCQkPC4V69eS5Ys9fPzA4DZs2cvXLjIzc0NALZs2WxlZTl79o/5+UXULY3jOIZB8+bNp0yZOn/+AgBQKJSvX79+9Chh7NixmzdHWVpa9urVy8zMTCwWm5ubA0BNTXVOTnZq6hscx/z9/RcvXhwQEAgAISEhS5YsadOmDVXs4OC+cXG3pk6dfOPG9ZCQQdu2bZ06dYqPj4+Tk+PnxxifD213Q9cDMOg05NUChsHWROh/FDoegbbbYdGdX1OSJMlisQ4ePJienk6SZGlpKQBcuHBhzZo1XC5XIpHk5+f36dMnLS0tPT194MCBBgYGarW6rKwsIiJiyJAh6enp79+/19fXZzKZu3bt2rRpU8eOHc+fPz9nzhxTU9Oampry8vKQkBCtVpufnz948GAPD4/s7OyoqKhnz561a9eOJMm7d+9u2bIlNzdXq9XiOF5VVbV+/frc3NyQkJDp06fHxMSEhYV95RfxiW8LWIMHDwYAtVq9atUqZ2fncePGUQcDAEqlEgAQQiRJJiQkAACGYWlpaW3atPHw8PD19b18+TKVyZMnT6iZPp/nLxQKMzIyqHgUFhZGPaYAICIiwsurnjE1iUTCYDCOHz+elpa2fPnyT/J0d3ffunUrtXDcuHGpqam/f4SeTcHNA+Vko5oapCNIiVQnlmAcFtfNQV1SKXmeAQC/adH957NOTRiYcblGHH0DZnmR8tWdyuw38tQXMh6fqaeHm5rhOi3otADwtTpWeUXV7fhH3bt1EtWKq2tELVt45+blv05Jgw/bYQycwdGjBisMRgwb8ujRs8QXydTa1SsWLl44kySRHkevvLxy4NBxDx49rXcvCEgAAI0CADjsX0c5eFx9QASAEkADoEX/abVjGLi6OHXp0g2QMmLK2B9+GKWnxz14YHcn/2Bvb+/8/FwHB+vuvYKSXj18l1/C43EB4x44cLBn9449urUbOWoMIlVisZzFYgGg2XN/mjNrcpuWnmtX/9StV0js+RipRG5oKABgU63d48ejfXzad+rcJ3zi5JGjJ6xYvggAdAQBACRBcPX1AKC0+F11ZXmHdi3nz5tlZlbP3I4PJxnDdAQAAJsNYILjQgZgoNIinY60MDevrKz09+9ib28DADNmfOgoVKlUAFBTU0N9LSjIP336XLdu3WbOnMVkMmNiYgBAT0/P2trq+vWrzZs3ad++nbGx8Zw5s6uqKgGgTZvWALB3756wsLC+fYNzcrItLS0B4PLly7t379qzZ09iYiKVMzVGJJP9pldu5crVQ4YMyczMMjAQ7tmzx929sVQqPXQoxti4nmN8Vwv5YnhQBOfioFgKAHArAy4+gJxayBFD4UcZ4zi+evVqkUh0+fLlpk2bUl06HTp0CA4Ozs7ODgoKcnZ21tPTmzNnzujRo62srPr06TNnzpybN2/u3bu3urq6U6dOPXv2xDAMw7Bdu3bp6+svX748KCioW7duqampAwcO9PT05HA4vr6+LVq0YDKZQUFBEydO3LZtW3BwcGhoaEhIiFAovH379vDhw01NTW1tbWfMmHHnzp3s7Oxr167t3LmzT58+GzZsqP8i1ufbmoRhYWFKpXLLli2ZmZnl5eVnz569dOnSgwcP2rRpQ9V9MAxDCFEtPgzD8vLy6ubyMBgMoVBYW1tbWVlJEMTnA4LUya3r3qIqR3X4fD581j1fNw+b6ub4nJubG47jACCTySZNmvTgwQP86/OgMAybMZNx6QqZkgq4jiEwRAwWaAjg6mFMhup9NZXms2JjJAJ9Yw7GYUnEpImF3tskqZZUGpnqSZVgZctgsJj5xQhn/TqJq1537z/OycnbszdGrlCQBGloaFhWVnnm3BWv5k0AoLZWHDp66PhxI+rSb9kWvXzVL6dP7NXncgGgb2DPvoEf6pjbdx1YvmpT7JkDBgL+J3thsbn6AksLS6fyMoZUplIolGKJTE+PU1lRY2hoZOvgqVKRWq2KyfzNYUrEYgCsrKzC0cH6zZsMwDmp6dktWvWQyWUMBgsH0sjUXiqT4RgOGA7kh1FaHEgADGNghE4HAP6d29ZlOGBA8J2b54rfl7LZLADAAAMAAU9v+cpVwUH+AIxNmzb9JxMMAAqLSoICe8yavWjb9l1HYg4YCC0nTZywcuUyNuvTC4ox2MC1AeUzPtcAAL3I09YUavPzde+KtO5OLCEfV+lIkkQkoWvVqvXq1QPrOrY/6Vo9dOgQANy6devZsyc6ne7Vq6Ts7GxHR0elUunq6mZpaXH58tURI4b37z8gPT0NADZv3tS9e49Dhw4zGPiBA4cIQqfV6gBg48aNAQGBRUWFfL7gPxOayM93BwBUjY+yY8eu+u8SAAAY6wXjvOFCKgyI/lDr4GAgcIDSiHoSU2NTJEmy2Wyqk9fGxubixYtarbbuZ1gXNZhM5oYNG2pra1ksFo/Hmz59OgDExsZSHSydO39odsbFxWm1WjabDQA5OTk3btxYu3YtAGAYtnnz5tWrV1P1GKrZ+PH7EuvXr1++fDmXy0UIDRo0iBrZ+OO+oYZFkqREIpk8eXJ8fPzDhw8DAwMxDNNoNNSThwoEBEGo1WpqKJAkyW7dupWVlcnl8oqKilevXt27d+/OnTtLliyhhhs+34VEIrG3t6c+79+/Py8vj/p89OhR6un0TcOrcrk8PDy8bjLR48ePV6xY8TvbqNXo3FmMr89wcQGlmqyqImvFiESAEJDow84/6zNHCHH4THG5UqfStgy0VSt1RmZsEyu2VEx06KrP5TFKS3Q8Ho5RU02/HLNOn7qwInLu3B+nLJwXsXjRrFkzwvft/iXuzv3SsnIAAAxkv529MX7cCJVKXVJS9nlWUyaGaTWa7Oy8z1eRCAgtxmDibK75tZsP/DoFtmndraVv1xGjJsrVWpzFIxHS6j490zpSB4AZCHgAYGZmAqS8V/cub1MfvHl5+82ruHe5L99mvPb0cCmvqARA6v+cc+oXi2EfLtyr1+l1GT548AgAzM1MtFoSABAgANDqYMP69RjOAUArli+jUhIkAQByuRIANm1cXVZaeOv2/cA+fdavW7lhQ/3zg3D7ICRHfbyQj6fgxmN50+HvW00t02qIH/oIuUbkk5clOq3mxs24c+diPx6GE4vF8J+2wrt375YtW66nx/npp8WLF0cuXboYAJYvXyYW19bU1Do5OV26dMXPr8Px4ycOHNjv6dkkMnJpZma2p6dHQEDvY8eOMpkMAwNDal7h9OkRPj7efn5+ISEDtVoNANTU1MJnc3HWr1/Xvn3bAQP69+0bFBQU2L9//27d/AcMGEA14j5BXR2xGgCAitgK9a8d7Z9jMplUcPlYvZUGilAo/HjelqWlZVBQkK2t7UcFwOoyTE9P79Chw/Dhw+vW1vUyw0e1ijrUNCYMw741WsE31bAIghg4cGBiYuKgQYP279/fv39/qi+cqgp93K/k5eXl6+v78uXL+Pj448ePt2/fPisr6/Lly0qlksFgXLhw4fXr1/UOFFZXV/fq1cvPz+/Ro0fZ2dmdOnUaPHhwdXX1kSNHqARfnD9Vn0WLFr158wYABAKBUqnU6XTLly8PDAxs1arVF7epqYa7dwgWl7Cwwbh6ADiGMzEmUycSA0nymzgCfGhuAPU7BAAAkkAEgRCAWkEYW3O9/S0S46o0OGrkyW/clHv3plKnQ6QaCESlRziOfz5x7sbN+BqReMqksR/XAZs1dd9/8PiRY2fnzZ6KSMT97VZv0jLUGrWpiRF8JvFFskartbKqp+JJaFVqVWlOJmIxsRqRUeabZAAZABJKG3M4euXF7wHUAFqd7jenWqNWA5DZecX2Dnbubo18WnQ8d+b4jOkT27TyAoDDh2PcPTzNW7dUqdVAEnVbIYSoSSw4jgHG+mXjxhYtfLt27Xz82JnTx/f5tupqYmIkk8kACGrKWPikmQ8f3LgVdzfhyYtlS+e5NnabETGBivGGhgY1NaK4OwlDBgX26NbJUGh+4sTB1/8Zhv4E0z5QWzzEqHL/+YXOkceZ99OUTYyY43saTQ9QqmoVoaP640buLOanP9dOnTrX1tZYW1sDQFnZ+86dO4aEDI6I+FBpqays1Gi0tbXisLAx7u4eALB///7w8PBXr16OHTtu2bLlDg4OO3Zsf/HiRbduPadNm+ru7uHp6TFgQD8mk6lQKMzNzRo3dsMwHADatWuXkpLSvPlvejlIklCp1FS4BACCIFQqFY+n/5V7XsgBQCDTAQC0doYbr2DoETDQBxKD8W2gnc2n6XNzc6urq83MzCwsLNRqNTVlUqVSMZnMertodDodNTTfrl27ui4dikqlqruHAwMDg4ODv1TIP9c3BCwWi+Xr63vnzp0DBw7cvXu3vLwcAHg8XmhoKPxnkrpcLqceU9HR0QEBAaWlpT/++Jvpy8uXLwcApVJJVXyoCaV1jxrq67Fjx3r27JmZmVlSUhIVFfXx5tRe1Go19VUikdRbVITQ7t2767rqr127du3atZ9//hkAAgICEhISvjiSSpJgYgIIAz0OBjjGYIMWdGWVqlqloFNrnqcTAOhkKo1IhpmotTLth3sJIVGBVCoDniWfJJCzl+G7DGVVla5THyMSgUJBEAQmFpFMPYaOAAyDyoqqpOQ3pmbGUqkMAwxn4LY2VvsOHO3apf3nLdYxowav37hj2uRxBEG8Sk7Jzs2rrZUI+PqPHidu2LRrReQ8IyNhyfuyd+8K2RwWjmN8Hj/hSeKatVsWzJtuXV/AUirkAACkQqvRiaprATgAWgBMo9XJ5DUAcgAVAKkjfjP5Njg4aN++6KFDQiwsTDdv2nT1yrk+AcFtW3t7NPGuqaktL81fvmpTm9YtNWo1gFqnpbrrQKVWAwAiCRxn4kwDjZYIDOjn5Gz3Lje9mXf70ycPwoeRHIKrx4m9cOnQ/i0/jJ/eo3vX7t27Xrlyceb08F49ullamgKAmZkwKSVz2JCgaWY29g622TnvTExt5n1pPh0As/UGTSLLkXH6cIROJmdzmToGtwKprVhNI/cFD6p3k/Dw8PDwcOpz27bt79178PHanTt3AwBJooMHD1NLGjd2u3fvPgAQBMFgMMaOHTd27DipVCoQfJiLN378hPHjJ3y+o8GDhwwePOSThQsWLFqwYNGXDqdezW0BGHA6CXrYwXJ/KKqBW1kADCgpgCY2vwas8vLy8vJysVh88eJFiUQybNiw4uJiHo8nEom0Wu2DBw9cXV1NTU319PRcXFxu375NzTyorq7Ozc1NTEycOHEijuMIoaqqKoVCYWFhkZeXJxKJmjRp4ubmhmHY3/mG/Lf1Ya1du1Ymk507dy4/Px8APD09N2zY4O7uTn2urq7mcrlUTdLb2/vmzZvTp09PSUkRi8X6+vrOzs6LFy8eNGgQAHC5XHd3d51OR43FWFtbUxGE6oqyt7e/e/fukiVL4uPjlUqlq6trRETE+fPnExMTqUqpQCBwdXVFCH1pNLSsrGz//v1OTk4sFmv06NF+fn4tWrRITEwsKCiQSqVHjx5dtmxZ/a1LLhdMTTG+EBCOAY4DgwE4k8c36uxg2LMdlYRlyNO3FnIshQyxiqnHAgADWwMSV7CMWQY2AgwHAPAfakkSCAAwACNjBkEiLokDAzAcGDi3o1+by1dvJb1O1Wq1iERanS4woJuPd9NRw+v5IQX26fbg0ZOysop+wb237zywY+chjUaDENSKaxcvnDF0cDAAZGRk7ok+amRkyGQwMJxRK6r9aeGMsaHDP88NAEzMDHkCIYtljOOEhZkxA9MqFXqAYUbGJlqdVi7BSVKNkI712zmiPbt3unbtcuz5WB1B2NvbWlmZ3b9/5+ChQ2/epBsIBAP692vfoTUATJk8sVu3rna2HwLlkMGDnB2dzc2Ms3KKSJ04cvVGd3e387GXZs6IGDNmjNBQHwBCx4zw8W5ubmGq1hC/bN42ZVI4dd7Onjlz9OhRhULh16H9lm17raysmnganT599s7dR+9Ly9u37/TDuDBvL88v3asYk8tut5koCWJU3uaT5QAsgt0Ys+vPMPydF10/bP6Fzod6p319/Iuti1Z/Aych+DeF6Fjo5AKjPeHAIEAAN4ogYCsoP3pB7uXLl9euXWvatGmbNm0yMjLev39vYWFRW1t79+5duVzetGnTnJycM2fOtGrVysbGJisrSygU3rx5UyqV2tjYeHh4xMXFPXr0yNra2sXFxdDQMC4urkuXLrdv35bJZNRv/++EfVMji1JQUJCeni4UClu3bl13qbRarUajoZrKH1/st2/fVlRUGBgYeHt71y1ECGm1Wp1Ox2KxWCyWTqfTarVUb/3H114sFtfW1lJRiSRJhULBYrE4HA5CiPp3h0/S11EoFDKZzNDQECH0ceNLqVQihKRSqbm5+ZfuSKRWg0QGLCbCMKq/CRf+pvsfkSQghOEMRJIY40OFSC3XYBjO1q//AVArIgkSMzTE6urdCoVSp9PhOE41mzh6HPaXOxQAgCBIBgMHAKVSRQ1NfDxXnvr3C2oA8pNVn8svLKmqFnE5bATAZOAEgaj+I5yaMgKIIEgSITcXp6/n802ePHvZvm3Ln9euXzB/7p+V5x9H3eL/FS/v/tnyJDB4P7xKB0838LUErQ4elUBxFcSMg9HNPqSJjY3NzMzs0qWLpaVlVlYWn88XCoUVFRWJiYk2NjZeXl4ZGRllZWVt27Zt3rx5ZmYmi8XKysqqqKjo3Lkz9RssLi52dHTk8/kpKSmOjo6tW7d+9OiRSqUKCAj4vGvsL/U9AYtG+1YFhUUR0+eHhY4cOCDwny7Lv40KYPdjuJgKpXJg4tDeDga1gi62wP5P7wL1ItHnvVRqtZqqXhDEh27Hjx//1BiiUqmse9WXIAiJRGJkZESNdX4p278UHbBoNFqD8a/+d0IajfbvQgcsGo3WYNABi0ajNRh0wKLRaA0GHbBoNFqDQQcsGo3WYNABi0ajNRh0wKLRaA0GHbBoNFqDQQcsGo3WYNABi0ajNRh0wKLRaA0GHbBoNFqDQQcsGo3WYNABi0ajNRh0wKLRaA0GHbBoNFqDQQcsGo3WYNABi0ajNRh0wKLRaA0GHbBoNFqDQQcsGo3WYNABi0ajNRh0wKLRaA0GHbBoNFqDQQcsGo3WYNABi0ajNRh0wKLRaA0GHbBoNFqDQQcsGo3WYNABi0ajNRh0wKLRaA0GHbBoNFqDQQcsGo3WYNABi/YN1Gr1ggULjh8//k8XhPY/CkMI/dNloDUY169fDwgI8PDwSE1NxXH6aUf7u9H33O8rLC6Wy+X/dCn+K+Tk5ACAVquVyWT/dFlo/4vogPU7Yk5f8O/csX+//q9evfqny/LPk0qlAIBhGEEQ/3RZaP+L/l8BS0sogCQQkH9Waf57kACvEu6Frj8zb0esRlT6+nVycHDwymWRlTW1/3TR/hwikWjhwoUeHh6mpqYtW7bcvn37H49BOI7T7UHaP+L7bzsVaN6JnsSX7X5ReoLIy0Ja3Z9YrH+SuBTexK1bFtmy14D4zCrXlp2tTY1dGjlx2cyl6za17B3y8GwMZD0EdQNuE0ml0t69e69du/bt27fGxsaVlZURERHh4eG/uyGHwwEAJpPJZDL/+mL+rZRKZUlJiUaj+QfLoFKp3r9//8+W4b/c9wesynePX4ovZUuf1uQ8lexbSA7rCEe3AGr4ta3be2H7yI6ZO6fYiPnGxrjAALf10LNwMPds6evtPZf10PbaPNgzAfK+1kIUi8Vqtfr/WRCdTvcXtbwmTJjw/PlzX1/f58+fZ2VlFRQUHDlyxN/f/3c3NDAwAAAej6evr/9XFOwfdPDgwbZt254+ffofLMPevfvatm13796979mY0IK8FuBfPob2nc9JTewJ1dMjro1N9HQct9T89MKiG+8VgpXLRqS8FK7eCyy9P7eUfyulDDqG+QX94LdnzLq7Cx/zWnZ35hRoiBcKg18aJ7ft0AP6/wJxh0EprXdrjUbz+PHj9evX29vbR0RENG3a9LsLMn369Pbt248aNeq7c6hXcnLyqVOnMAw7evSou7s7tfAP7oXP5wOAubk5hmHfXYCzZ8/q6ekFBQXVLVEqlWKx2NLS8pOUFRUVAoGAy+V+974+l5ubGxt7YcSIEdbWVp/sq7i4WCSq/VP2ghDq27efnZ3drl07/vhWlZWVRUWFtbXfVQYch5uHIP0p6PGAzQFpLdRWAN8QLJ0gZBaY2nxPnv99vidgad6+rtqzgs/RM8tV8oHIl4ove3Zpu3OJqLz08LTB05ZPZqyIBpzxp5f1b8JggVYFQjcYe3S2dPi4skdmFoYiFaegSuzd2AaGHQa+KQAB9XXiJCUlhYWFKRQKBoNRVFR07dq1Hj16REVFURWTb5WTk9OkSZP/9/F86vr16wAQEhJSF63+OCpgubq6frywuLjYwMDgDx4jSZKDBw/m8XjV1dVUAxMANm7cGB0dfe7cuZYtW9alrK6ubtu2bXBwcFRUVN3C7OxsBoPh7Oz8rSWnlJaWDRwYkpLy+t69e5cuXcLxX8Muj8erO8AvQQhRkbqgoMDBweHjVWVlZSqVytHRkfpaWFh49eplX99WH6cpKSnR6XSfbJidnW1hYVFXdQUANptdt7aqqtrQ0IDFYn2xTBoVFGcBlw96fOgwEMTVcHkn1NSAoRB6jAahOby+B+HesPYGNPaltnj+/PnJkyeVSqWpqenkyZOFQuGhQ4fKy8txHJfL5UOGDDE1NT1y5Ei7du26d+8OAImJidevXw8KCnJ1dY2JiamoqCBJkiCISZMm2dvb79u3r3fv3nZ2dlqt9syZM02bNm3evHlMTMzTp0+ZTGaTJk3GjRsXHx+v0+kCAgIA4M2bN2/fvh08ePBXzvPXoG9XvWxKSbdG5aHdS0Z10Y5ot62l08knr6hVI+cv2evIQelPPt+KJMn169dHRESkp6cXFhbGxMSQJIkQevv27Y0bN9Rq9YEDB2bOnHn37l2EUEpKyvHjx9etW7du3TqE0KlTpyIjIzdu3Lhq1Sq1Wh0XFzd58mQq5f379y9fvkzt4u7duy9evFCpVJs2bZo7d25WVpZUKl26dOmmTZvmzZt36dIlgiDWrFmzYMGCysrKLx7esXno7ApUno+ubkX7J6Dplmh2UzTXHc1xQAu8UMJZpFaho3NQ0rVPtpPJZE2aNAkMDCwtLR05cuTPP//85s0bIyOjxYsXI4TevHkzZcqUNWvWqNVqhNDZs2dfvHiBEIqKikpKSkIInT59ety4cfv27aNyW7dunY+PT58+fc6dO0ctUSqVa9asmTRp0suXLxFCubm5sbGxu3btmjZtWmZmJkJIq9UeP3585cqVu3fvzs7O/tLxBQYGAsDBgwe/lCAvL8/f39/W1vbw4cN11y4mJsbHx8fExAQA6parVKpx48ZZWVm5ubk9e/YMIXTmzJm2bdsWFBQghN69e/dJzqdOnWrUqBEA2NvbV1RUUAsPHTpEhYkFCxbUpSwuLp4yZQoAtGnTpm7hxIkThUKhtbX16dOnv1T4r8jJyfHy8qZu+61bt1G3X51169YBwMWLl+Ryube37+zZc6jlU6dGtGnTVqFQPH/+3MfHd9GiRV27dtXT4wYF9S0pKUEIVVZWTpgwwcjIWCgU+vt3Ky0tffXqFY/H5/MNTE3Nvbx8KisrNRr1yJEjhUIjQ0NhQEAgdXVyc/N69+5jYmJqYWH5yy+bdDrd5s1bAODGjZsIobVr19va2i5a9JNWq/3aUWnVaF0o8hegoXZotj+a3wuNcUVh7ijjGUIIXdiOEi6j9WPRpJZIo0YInT9/nsVi+fv7jx8/3traeuPGjU+ePAEAf3//kJCQVq1a3b59e/Xq1QBgaWlJ7Zp6isyfP//FixcA4OLi0rFjR2trax8fn7NnzwLAyZMnEUI1NTUYhkVFRVEPmB9++GHQoEGWlpZXr17t3bu3v78/Vd5NmzZZW1vrdLrvuIIIoW/uwyJKizRZKUhgSJIEGxCBM1qYCPLux71Tk0mlVealeSmGto9v3UW/7XxRq9Vjxox5+PChQqFISEgoKSkZM2bMxYsXAWDYsGHr16/XaDQIISsrq/Dw8Ddv3qSkpIwdO5YgiNu3b0+aNMnGxub69etRUVEWFhabN29etmyZvr7+1KlTHzx4kJ6e3rdv36qqKgDo1avXzZs31Wo1h8MhCCIsLKyoqMjExCQqKio1NZXNZoeGhqalpVVUVAwdOrSysrL+I2RygCTh5SU4MVf39IaWEAIGQDK0Kn1dRRkcmAgZ98HIBshPe+tKSkrev3+/YsUKS0tLpVJJEETTpk1HjBiRkZFRUFAwbNgwsVh87ty54cOHq1SqHTt23Lx58+LFi5s2bbKxsYmOjp42bZpEInn48GFNTc2ECRNOnz5taWnJZrPnzp27ceNGkiRHjx597tw5kUg0YMCA3NzcqqqqMWPGvH79Oi0tLSQkRCwWq1SqZcuWXb16NTIy8tatW1+6ghKJBAAsLCzqXVtUVNSrV6+7d+8KhcLQ0NBVq1YpFIqePXuOGTNGq9UKhUL4T9d7TU1NQEBAbGxsp06dMjMzqds0ISHh6dOneXl5MTExTk5O69evp7KVyWRBQUFDhw41MTHBcZzL5RobGyOExowZExYWRs3qUiqVAIAQmjNnjq2t7YEDBwDA1taW2ldwcPCePXuCgoKok/z1u/T+/QezZ8+WSH5tthcVFffvP+D162QMw0+cOBkRMa3eVi2Xy1UolMnJL1+8SKSWPH365NmzpzodUVlZmZT0cs2aNRYWlt7ePleuXI6MXAYAM2fO3Ldv3+TJk5YvX3737p1x435gMpmuri4cDocgdDyePkJowoSJx44dmzVr1tKlS69duzphQjhJookTJ924cX3Xrl3+/v4LFy7UarXGxkYAYGNjs2fP3gUL5jEYzLFjw35nfIPJhgnrYNQskFbDk7vwLhXEVeDXH9xbAwB4toObB8DBEwBB4Vvq+mq12latWnXu3DkqKmrWrFmVlZUcDsff379jx44DBw5s1KiRXC63srJSKBQvX76srq6uqqpq3rw5NfnO2Ng4Kirq+PHjhw8fTkpKunPnjkAgoJ43bDZbKBRyudzMzEwAaNeuXd++fc+ePRsQEMDlcvPz89esWbNhw4bLly9T98DXr+AXfUNwo55IlSXqEB80vA2aEqCZGkxO64fC/d8O67jzx6lHJ45EY9pVhfjunjbuk4fC8+fP9fX1qcoFQujs2bNeXl4hISHLli1r0aLF5MmTy8rKTpw4cf36dW9v7yNHjkRHRw8YMAAhVFtba2pqSpLk7t27R40ahRBq1qzZgQMHEEKzZ88ePXr048ePPT09w8PD58+f7+vrGx0dXVxcfOjQofPnz9vY2Fy9ehUhNHz48MTExKSkJHNzc6oAbm5uUVFR9R/mtSi0oguaZIdm2KBwO/kQU7TAC833lg0yQRPs0FQTNM8bHZ6FMh5+sp1MJvPw8AgJCdFoNEOGDFm/fn1OTo6FhcXOnTunTZs2aNAghJBCoTA2Nr537966deu8vLw8PT2pG8jCwuLYsWNUPrGxsXZ2dgihadOm3bp1Ky4urn379rGxsZaWljU1NQihoKCg8ePHJycnd+jQgdqkcePGR48ezcvL6969O0Jo0KBBmzZt+tJl/OGHHwDg0KFD9a6lOrNu3bqFEJozZw6O476+vgBAZfjjjz8CwJkzZ86fP+/m5gYAlpaWVLt1//79CCEqQlGNPgMDAyaTmZ6ejhBq166dvr7+69evMzMzGQyGt7c3Quinn34CgIULFw4bNgwAZs2ahRAKDg4GgAMHDmzZsgUAdu3a9eTJE2pfAEA97bdt2/alo0MI1dSIqO6wXr36VFZWIYSSkpKdnRsBgL4+Pzb2Qr1bUTWsa9euU11IAwcOpJb36RPA4ejJ5QqqL3zKlGkIIblcbmZm5uDgoFAokpKSzp49W1FR8ejRY2dnFwxjUI8rBoPVu3cfKpNHjx4fP36yvLw8IeGJtbWtqam5Vqulqnvnzp3PysrOzs5BCG3atBkA699/AAAEBAR+WzXkfS46sBhNboV6s9GpDb8uL0hHD86icC+U/hQhpNFozpw5M2nSpH79+pmZma1evTouLo7P5w8ZMiQsLGzw4MGZmZkLFy7s169fv379Fi1atH///pEjR86cOTMsLCwtLY3FYhkZGdnZ2XG53MWLF799+5a6H6hdCQSC9evXy+XyX375ZeTIkV26dLGysoqNjZ05cyaLxWrcuLGHh4e+vn6rVq2+4bh+6xvinE6ne56alvj8eaHA/KaWu+JtdWhy2ajnBVtKdRcqVfcuxr5+/uyQhF2J6XUy5d5NfPG+/NcqjJOTU7NmzVasWHHkyJHTp0+LxeJOnTr17Nnz0qVLs2fPJkny5s2bM2fOFIvFNTU1Go3GwsLiyZMnDx8+jIyMdHJy0ul0BQUF+fn5AODn5xcTExMXFxcfH9+lS5enT58OGDBAo9Hk5eXNnj1bKpWePHly06ZNLBarvLxcoVAAQEFBQUZGhq2trYWFxbp16/bs2YMQateuXf3HiTEh8xlw2MXtpucFR+o3dQeZGJQynptDca9Z77qtANDBs9PAFXyyHY/H2759e3JycseOHd+9e3fhwoXg4OAOHTqEh4drtdqysjK1Wp2VlQUABgYGlZWVpqam9vb2169fZzKZRkZG+fn5JEmWlJRotVoGg/HmzRuNRlNZWZmdnc1kMqmH2Js3b5RKpUgkMjQ0RAjp6ekRBFFSUqJUKh0cHB4+fMhms+VyeVVVlU73xVkmfn5+APCl4bDs7GwA8Pb2BoAlS5aQJPny5Usulztr1iydTrdp0yYAUKlUUqk0MzPTwsLC0dHRxsbm+fPn48aNA4CioiIAOHPmjI2NTUJCAkEQ0dHRaWlpT548adu27bt375o1a0YQhJWVlVgs/vnnn8PCwtasWaNSqQCAxWJduXLl0qVLERERffv23bdvHwAYGRkxmczMzEwTE5MBAwY4OTklJydPmzaNIIgDBw4cPnz480PgcrmTJk0CgJs3r0+dGvH8eeLYsePy8nI5HG5MzOH+/ft96cxQCIIEAA7nw8ARh8NBCAEA9Q6bs7MjAOjr65uZmSEEbDbb1tb2xImTrVu3mTFjhlwuMzU11em0Go0Wx7G63ihzc7NTp062adN2+vQZGo3GwMBArVbHxMQ0b+4VEjLQy8srJiYGIaSnxwVAFy7EAoCNjS2D8Yc7gnVaKCsAKyewcgKWHiTHg077YZW9B6iVIKoEm0YAcOHChStXrowYMWLu3Ln29vaxsbGVlZVarXbIkCFjxowZMWKEiYlJYWGhTqcbOXLk2rVr58+fHxISUl1dXVZWVl5ertVqjx07tnz5cuqWc3Nz69at2+zZs+/duzdz5kytVtunT5/9+/crFIrp06fPnj27tLT0/v37eXl57dq1S0tLS01N/fHHH8vKyr5yf/6Obwpvd+Pvurm7A4MFPGNgCkDPUGBi0b1Dey9PDzA0BhYf9IyBo2/A0586dVpVdfXH2+bl5Q0ZMqRTp07Xrl17+vTpjh07EEIVFRWvXr1at25deXl5ZGTkjBkzpk6dmpmZuWfPHldX17lz5w4aNIjqoDlx4sSaNWsQQgqFYv78+R06dPjll18QQjExMTExMRKJRC6XP3z48MyZM8XFxVOnTo2MjJw6dWpycjJCiHqMIIRevnwZFBTUu3fv+Pj4Lx7kuZWoNaCdA+effdJ79Ql0eSWaYIzGGqJT06btuxS66zKKnY96Acp5Vu/W1dXVJ06caNq0aUBAwL1796iFb9++bdGihY+Pj52d3Zw5cxBCPXr02LBhw7t37wwNDe/duxcfH29lZdWqVSs/P7/KysrVq1dbWlp26tSpQ4cO1tbWVOVr/vz59vb2Pj4+Xl5epaWlycnJzs7OAQEBdnZ2S5cuzc/Pd3Nza9OmTUhISKNGjVq0aJGRkVFvCfPz86lWRkpKyudrO3ToAABXrlxBCEVGRgKAubk5ACxbtiw4OFggEADAzz//TLXXunbtWlpaWlxc/OjRo9WrV7dt27buvqJqZKNHj+ZwOFu3bm3cuDG1fOzYsU5OTq1bt46NjaV+Pzt37qRWhYWFbd26FQConjIcx9ls9v79+6mqjYODw8uXL9PS0m7cuLFo0SIfHx8AWLVq1Zcu465de6hsBQIhAPB4/Fu34r540f9Tw7p585ZUKgGAHj16Usu9vLy5XH2FQhEffw8Ali9fjhBSKBSNGrn4+rYsKyt3dXU1MjJ6+fIVdfY4HD2FQlFTI6rLRCSqZbPZRkYmSUnJCCFf39YGBsLy8vK3b99mZmY9fpwwbNgIAHj27NmlS5cBICRk0ODBQwFgxYqVXynwp17eRlPboEAeGmCKumPop0CU9RJVFKJT61EXQOe3UKlev34dHBxsbW1tbGzs5+eXmpqanp7evHlzV1fXxo0bOzg4nDp1avfu3VOmTKmtrfX29nZ3d5fJZAsWLJg/f/6zZ8+6du1aW1uLEDp69KiLi0txcbFMJuvevTuLxXJ0dIyNjUUIxcbGtm3b1sjIyMLCIiwsTCQSTZ48mao+I4ROnDgxcODA3+mY+7Jv7nQvKCo++Mu6dQ7629u7nR4RkDdloG6cvzS8z/3xA/b17fSLA3dzoF/8k2dfr81+0t9ZR6lUUh8WLFgwefLkr+RAEMTXy1nX/Pxmr66hBR1RhP276EUZl/ajxa3QTEc0ywnNcM45uDT75Ea0uhta1x/VFH8lj+Tk5MLCwo+XiMXigwcP3rx5k/qanZ1Nddm+ffuW6nTPyMjYs2fP8+fPqQTx8fE+Pj6hoaEfx527d+8ePnxYJBIhhI4dO9asWbOzZ8/evn0bIXT06NFmzZqlpqY+ffr0/v371tbWdRX1z61cuRIAWrVqVdc3TxAE1fbU19fHMIzD4bRq1QoAhgwZkp2dTVW47Ozsnj9/jmHYsGHDXr16RfVn4The18nSt2/fw4cPMxgMe3t76lIWFhY6Ozvv3LmzrKzs9OnT1PNj2rRpTCbzyZMn/fr1o/oyfvzxxx49erBYrKysrGXLlnXr1m3BggWpqane3t4TJ04sKiry9PT85EHbuXPn8+fPf/1K7tjxIRQKhcLr1298PfFPPy0BgCNHjiKE3N09AGDgwJCOHTsDAIbhUqns+vUbAEA9b2QyGY8nsLW1Ky4ucXf34HD0Ll68tHTpMmp3VVXVarXGxMQMAIYOHZaWlm5nZ8/nC65fv75w4UIAEAqNxWJJ27bthEKjGzdujB07FgAyMjKoSuW9e/dIEtnZ2QPAqVNfvIj10KrRowtoyxQ0vQMaZIEGmqKRrmiYHTr3ae9HWVlZfn4+FTU0Go1EIqmpqamtra2oqFCr1VqtVqFQIITkcrlUKkUIqVQqtVpNEIRUKq37aVdWVtYNXuXm5orF4o93UVBQUFRURH2WSCRUhtTu5HL5NxzUb33PKCFCCJ3YgvxtUIiPLqyLeHRneWhXNKYj6u2Ewjqi918cn/rjysrKPvnB/30UEpT/Cj0+g84tRpt6odF8NMsJzXZBEa4oeix6sAc9v4jKchDxncMcf1yPHj127tz5pbV79uxp1qxZ3desrCxqnI4SHx9fXPy1kErNa8dxfPz48XPmzKGmODg7O9+4cePy5cuNGzc2NTWdNm0aFfdzcnLWrVuXn5+PEDIxMXFyckIIpaWlLV26lOo9PHr0KBV/EULr1q2rG9lECGk0mk+eXqtWrQKAuLg4nU4XERFBtdAfPXoEn/Ws+fn5tW7dGiFUU1Oze/fuWbNmrVy5MjY2tm6E8XdFRW11dXX53WiFEDp48JCPjw9VR0hIeNK8uReOM3r06PnDD+M7deoskUgSExN9fHyo0ioUir59+/btG4wQevTosZubu6GhcOjQoT/++GOnTp2oW/fSpUtNmjSxsrKuqKh89ux548aNjYyMg4P7/fDD+ICAAJlM9uDBA0/PJkKhkb29/fr1GxBCR48e8/HxefToMULoxo2bzZt7DR48RKVS/cGD/ZW0BhW+RfdOo0cXUO0fPVcNwvcGLIRkV06Uh/Uo6ev1PqhZSVDTkoEtq1fP0L7/h6LMn4jQIUkVqihApXlEUSpKuxna2XtqYEdUlYmqC9H7HFRZhJTSv6EgqampdVHgc+Xl5UlJSb9b0/yKw4cPBwQE2NraOjk5jRw58tq1Tydq1Kt9+/YYhlHB6/vs3bu3rs34sYcPH2ZlZX28pFevXh4eHt+9IwrVhPkjtFptXd2fJAmqI/zj5b9NQNadfIVCmZqaVpeY+M/DTKvV1tU7pFJpWtrHaT5sm5qaVlZWRn0mCPLjXSCExGLJ9wSsf6/vfyOMFzhMv2ugJvWlrrIUWGx2I09WI4/vzu2/CM4AgQlwuCCpkEqVyflyiV0LCztL4BlAjQi4RmBkAfD987z/uK/PGjU3N6d6l77bmDFjxowZ8/ESrVYrEomUSqVGoykvLy8tLRWJRDKZTCKRUOMhP/3005AhQxISEkQiUVpa2sCBAz08PKg3dYyNjS0sLHg8nr+/PzXh8EuoAYTPu12p0YCPUSPLJEn+f961NjQ0/IMpP55AgGG4i0ujT5b/NgFWNzGCy9Vr0sTz8zRMJrNuPi2fz69r2H6cpm5DAMBxDMd/85M0MPh0bOd/3P/rFVZMX8Bp3YXzZ5XlvwpbH0wdDfnG1mWVs3u1MDUzQ2rArNwA+5f8S4FIJCorKxOJRHl5eVlZWVlZWbm5uWVlZdXV1dR8qI9xuVwmk8lisWbMmBEQEDBz5sy3b982adIkNDTU0dHRwMCAz+fr6+vr6enhOG5j8ztvgRQUFACAi4vL7xZSpVJ9HBdoNPofR/8AnQSYXIAvvx7RoMTFxZ0/f762tpaqQJEkyefz7ezsrKysTExM9PX1+Xy+QCAwNjY2Njbm8/kcDofD4VD/0GBmZqZWq589e+bh4WFmZvZHdpeUlBQVFTVixAg3N7fc3NwrV65ERUVZW1unp6d/UvfZu3evi4sL9Q62Uqm8d+9eQEBAv379Lly48FecB1pDRAes/zkZGRmFhYW2trbGxsYcDkcgEHztVbX/t4SEBGqqRB0nJ6fo6OjP/xzCz8/v8ePHbdq00dPTe/v2bXl5uaGhYVxcHDVeSaMBHbBof4PExMRbt26JRCJLS0sXF5fevXvr6dXzfx55eXn79+9/8uSJQqEwNTX18fEZO3bsd7/nTPtXogMWjUZrMP4lXcg0Gu1/AR2waDRag0EHLBqN1mDQAYtGozUYdMCi0WgNBh2waDRag0EHLBqN1mDQAYtGozUYdMCi0WgNBh2waDRag0EHLBqN1mDQAYtGozUYdMCi0WgNBh2waDRag0EHLBqN1mDQAYtGozUYdMCi0WgNBh2waDRag0EHLBqN1mDQAYtGozUYdMCi0WgNBh2waDRag0EHLBqN1mDQAYtGozUYdMCi0WgNBh2waDRag0EHLBqN1mDQAYtGozUYdMCi0WgNBh2waDRag0EHLBqN1mDQAYtGozUYdMCi0WgNBh2waDRag0EHrC9SEqRYR6hJJNIS/3RZaDQaAB2wPve4VparVAMAjkF0ceXUjIIkiaLelCqSvFoh1pIIAKpF1U/TUqrevCIPbIWc9M8Ta5TaiIlRvbrNmjtx55RRm3p0jYjefvXjBG/TCmeH70hPyf9K2SrKRPOn7E5+kfPdR0ejNWjMf7oA/3UKVernYpkxk2nJYTXm6VVrdfZc9o7CCne+njmbZc1mKUiySqNLlysxgGe18iyVuoUBj5+XQ6g1qrwUTUnem9gzdlPmWvL0f5MvBuZmRhKp7Oyx+xY2Rs3aO9g5mAGAWqXh6LEBoKSo8uj+Wz2CWno2dwQAnZZgshgfZ4BIpJCrzx2/38bPw7ulCwDoCJLJ+M0jR6cjmMzfbEWj/Zv83TUsnU73N+/xWxkxmU9q5RgGYh0p0RHWbPbdGmkHI8EbqSIyuwTD4KVEvji72FWf017I5zFwZy77Qa0cM7Gw4rK1AsHzDj2f+HQ6UyrKU2o+zpatx1qyKvTw8cUOLhYB/druO7iwSw+fiLAtnb1mLIjYo1ZrTUwMLKyNjU0NdFpifsSeFk4TJoxcX10pBgCFXDUzfFvHZtPmTt5pbmXk6m6n0ejmjfu5Seelw9JlZSQAgESqnBG+tVWj8HGD1xbklf8jp45G+6v9fQFLKpWP+2H+tWvxf9sev49ERzAwrJ1QYM9lFas0VTqdhiDZGPBwBhvH8hTqQg2hx2TymSw1jvEYeFsDnj4OXGt7m0auZfrGaRKNXVOvEhKrVGnqzZ8kSKrqNLLvypRXuRHzBl49nzA9LEqPyzY2Fuhx2T/N2Bt74v6U2f1SkvLGD12vUqrnT9kddzVxdHgviVguFcsNjfjzpu66dOnp9NDOD6o1/dPlCi0xZ+TGm1eej/qhh0gkzct+//eeMxrtb/L3NQm3bT988EB07z6dP191/cb9osL34eHDAWDjL/vi7z21sbFYHjnTysocAPLyCleu2lZVLerVs9O0qWMQidZv3NO5c5u2bXwAQKPRRm3ZHxzcw92t0Z9STi+BPhfHhUwGl4F1NBIYs5hMDG5VS3wN9LuZGjyokTmz8F6NrFIkcgSop5W5kMP0NzOyZeMspqF7286mJJYhkYXYmrXSZ32euU5HAAIjI35lWe2zR+l9+rfRarSe3k4PElIG5nW2czDPTCu8dfXF7iOz/fv49hvkF+A37+yxB08epR09v9inTePgQR2GByy/ceXZ3euvjlzc2KqDq69I1SOfPJyQk3T75dHb61q2d5sNw/6U80Cj/Rf6m2pYJEk+S0w2NLIR8Hmfr01KSr195xEATI2IvHAxrl9wd5JEgwZP0Wq1lZU1I0bNMDEx6tO7y85dR9dt2IPh2O3bj5Yu3URtG3vh1uIlm+Xy+vvFv4MbT6+vudCMzbTlsNsL+e48PRd9vcl25m0M+c5cTpiNSXNRqYNS2p2D2ihEXoQcKRQeWgVDKs3NyXmXlcEoL3YoznURV3wpf61Wp1RqOHpsHAMeT6+ZdyO/zs1275+tx2WXllQbGRvo6bOfPkwHgKTELJVSY2jE0+OyEx6mAcDj+DcyqdKnpSuDiSfcfQUA98Q6Qke4Wxky2OzH998AQFZGUWV57Z91Nmi0/yp/Uw2LJEkWk8lkMkiS/HytgYHAxcUxMzMvJSUj9txuMzPj8AnDhwydduLk5YqK6hY+TTduWAQAXbu0HR++oF/f7r17dd685eDtO4+6d/OLitpvZ2fJ59UTB/9E2EefS2tqsouLDPR5RUWFpmYWhkIhjuMVFeUCgUAiFiOCkCkUsuxMW7XGwdHp04wIkKoVRaUVBkL9hatG79l+MaewRFquGDSyS3lpTWZ2kam5YeTasWOHrbl442FJZnWtQubT0vXnqPCQoKWHjl8uzKiOXDm2VTv3OQtDfpy0YT/b5E2ndkssoKuzZcTP42ZO37Ev5oKkTH3gyPwmPk4qpdbJxfIvPS002t/s72oSYjgDx0gSIYQ+X8lg4Ewmo6i41NPT1czMmFrYtWvbzMw8uULZs2dHaomHh4upiXF2zjt9nv6oUf2vXYu/fuOBm7tz06aNq2tq/6YDAWAymbY2tjy+QXZ2lk6nQwikErFcKmHguK29g0IuNzYzMzAQKOTSz7fFWfj6rVPMzYUAMOnHfjYOpndvvuo1tZWZuZDNYW2LnmFtZ+Ld0uXU1eXXLz9tMccNA+By2R27e526FHnx3MMlP7UMDukAACMnBtjZmcaoOEua8AYbAACMnNzb2tn86qUnHbt6de7pXVEuYrHo4ULavw76ixH5+SjxuU6rHT56Ft+waeyFm5+nWbN25/gJ80UisY9v0KXLtxFCFRXVLVv3e/Dw+Zmz1zt2GSIWSxBCe/Yd79xlaFlZ5eRpS549S45ctplv2CTvXVHYuHm37zz+qw+kjlQi0Wo0CCGJRFJRVlZTXfW+pLi8tFQirpXJpO9ycyRiMaHTKRTyv61INNr/iL+8hqWZO5cVew5/+KhQTeAY5u7u8kmCwzHnoqNPrV41Ryg0mDJ55MJFG06cvJybW+Dt7dHRrxVJkhcv3QruP8HS0iwpKS1q81ILC9OC/OKamtoZ08e1betja2OZl1dIkvVU3L6zwBo1g8HEcRzDMJ1Ox2QyAUCr1bBYbCoBXyAAAJIkBQKBQCD4sBlCgGEAwHPmA0BVVaVAYPhnFem9mpTokDuP8VSsTZPrnLi4vxEntlIdaMouVBF8HL9Zoy7XEO0M2a0NWGUaAsdwOw49JZj2L4Sh+tpofyLVxImcK5eUZ88Hbj0d6OsxZ074JwnOnruuVmtGjuhHfX38+OXtO48bNbIfNbJ/XZqYI+fy80v69+/ZvJk7QZCPH79o1MjBxsYCALRaXULCyyZNGpuaGv0pBS4vfV9dXe3UyAVI9L6kiCcQMJlMuUzG4/EAw3Ec4/MFKpWyqrLS0FBIAlKrVBhAbW2NmYWV0MhIVF2tVMirq6qaNPfS0+P+KUVKk+uiCuWu+swKLVmmJmbY8YRMvH+KaI+HQYWGbG/AvlalrtaR9hzGQ7EGAMZa6/sK6CnBtH+hvzxgIbkck8u0ZhY1ldUW5iZ/6b7+FPn5uSVFRc4uLiwWm9QRtSKRUqmwsbMvyMszMBIqFXInJxelWikWiUiCBAyqqyqMjE2MTcxYLBYJSCWXV9dU83n8Rq5uf1aRXst0+0oU3gLmG6lOg2Cstf71KlWSTOeqzxAwsHaGbBIhFo6rCPKuSM3A8IHmem0M6IBF+xf6ywNWgyOTSSViMZerp88XMDBco9WKaqr19PRwHGezOSqVUig0qhWLqioqjIyMGUymWq00MDRisdgqlZKnz6uqqsRxTCAw5Orr//7O/phSNSnWke48ZoJYU6AkWTgYMXFvAeutQluoItUkaiFgCZmYFoGQiSkIAAzoJiHtX4kOWN9Dq9UyGQwMp4MCjfa3ogMWjUZrMOg6Ao1GazDogEWj0RoMOmDRaLQGgw5YNBqtwaADFo1GazDogEWj0RoMOmDRaLQGgw5YNBqtwaADFo1GazDogEWj0RoMOmDRaLQGgw5YNBqtwfg/rFlZiE/jY2MAAAAASUVORK5CYII=&quot;&gt;&lt;span&gt;&lt;br&gt;&lt;/span&gt;&lt;/div&gt;&lt;div style=&quot;font-size: 15px&quot;&gt;&lt;br&gt;✔️&amp;nbsp;вес кор пакета и вспомогательных пак-в в килобайтах &lt;a href=&quot;https://bundlephobia.com/package/effector@22.3.0&quot;&gt;10kb&lt;/a&gt;&amp;nbsp;+ &lt;a href=&quot;https://bundlephobia.com/package/effector-react@22.1.6&quot;&gt;3.4kb&lt;/a&gt;(react)&amp;nbsp;+ &lt;a href=&quot;https://bundlephobia.com/package/patronum@1.11.0&quot;&gt;4.9kb&lt;/a&gt;(patronum)&amp;nbsp;+ &lt;a href=&quot;https://bundlephobia.com/package/effector-localstorage@0.5.3&quot;&gt;260b&lt;/a&gt;(ls)&lt;/div&gt;&lt;div style=&quot;font-size: 15px&quot;&gt;&lt;span&gt;&lt;br&gt;&lt;/span&gt;&lt;/div&gt;&lt;div style=&quot;font-size: 15px&quot;&gt;✔️&lt;span&gt;&amp;nbsp;востребованный навык (скилл, который поможет повысить свою стоимость на рынке труда)&lt;/span&gt;&lt;br&gt;&lt;/div&gt;&lt;p&gt;&lt;/p&gt;" style="text;html=1;strokeColor=none;fillColor=none;align=left;verticalAlign=top;whiteSpace=wrap;rounded=0;fontSize=15;" parent="1" vertex="1">
                    <mxGeometry x="210" y="100" width="460" height="1200" as="geometry"/>
                </mxCell>
            </root>
        </mxGraphModel>
    </diagram>
</mxfile>